#usda 1.0
(
    defaultPrim = "montessori_toys"
    metersPerUnit = 1
    upAxis = "Z"
)

def Mujoco "mujoco" (
    prepend apiSchemas = ["MujocoOptionAPI"]
)
{
    string mujoco:model = "montessori_toys"
    float mujoco:option:timestep = 0.002

    def MujocoAsset "asset"
    {
        def MujocoMesh "meshes"
        {
            def MujocoMesh "montessori_box_MontessoriBox"
            {
                asset mujoco:mesh:file = @./montessori_toys/meshes/stl/montessori_box_MontessoriBox.stl@
            }

            def MujocoMesh "montessori_box_MontessoriDrawer"
            {
                asset mujoco:mesh:file = @./montessori_toys/meshes/stl/montessori_box_MontessoriDrawer.stl@
            }

            def MujocoMesh "montessori_box_MontessoriDrawerHandle"
            {
                asset mujoco:mesh:file = @./montessori_toys/meshes/stl/montessori_box_MontessoriDrawerHandle.stl@
            }

            def MujocoMesh "montessori_object_2_MontessoriObject_002"
            {
                asset mujoco:mesh:file = @./montessori_toys/meshes/stl/montessori_object_2_MontessoriObject_002.stl@
            }
        }

        def MujocoMaterial "materials"
        {
        }

        def MujocoTexture "textures"
        {
        }
    }

    def MujocoEquality "equality"
    {
    }
}

def Xform "montessori_toys"
{
    def Xform "table" (
        prepend apiSchemas = ["PhysicsRigidBodyAPI", "PhysicsMassAPI"]
    )
    {
        point3f physics:centerOfMass = (0, 0, -0.2)
        float3 physics:diagonalInertia = (6.9266667, 6.5516667, 2.2516668)
        float physics:mass = 10
        quatf physics:principalAxes = (0, 0.70710677, 0, 0.70710677)
        bool physics:rigidBodyEnabled = 1
    }

    def Xform "small_table" (
        prepend apiSchemas = ["PhysicsRigidBodyAPI", "PhysicsMassAPI"]
    )
    {
        point3f physics:centerOfMass = (0, 0, 0.23)
        float3 physics:diagonalInertia = (1.7316667, 1.5026667, 0.42766666)
        float physics:mass = 10
        quatf physics:principalAxes = (0.5, 0.5, -0.5, 0.5)
        bool physics:rigidBodyEnabled = 1
    }

    def Xform "montessori_box" (
        prepend apiSchemas = ["PhysicsRigidBodyAPI", "PhysicsMassAPI"]
    )
    {
        point3f physics:centerOfMass = (0.026772, 0.00018125, -0.00393274)
        float3 physics:diagonalInertia = (0.00192842, 0.00624674, 0.00657549)
        float physics:mass = 1.02204
        quatf physics:principalAxes = (0.7081849, -0.0037527597, -0.0047669895, 0.7060009)
        bool physics:rigidBodyEnabled = 1

        def Mesh "MontessoriBox" (
            prepend apiSchemas = ["MujocoGeomAPI"]
            prepend references = @./montessori_toys/meshes/usd/montessori_box_MontessoriBox.usda@</montessori_box_MontessoriBox>
        )
        {
            rel mujoco:geom:mesh = </mujoco/asset/meshes/montessori_box_MontessoriBox>
            point3f mujoco:geom:pos = (0.005257508, 0.000014678141, -0.00030882246)
            quatf mujoco:geom:quat = (0.49638632, 0.4962184, -0.50386596, 0.50347495)
            vector3f mujoco:geom:size = (1, 1, 1)
            uniform token mujoco:geom:type = "mesh"
            color3f[] primvars:displayColor = [(0.89, 0.67, 0.57)]
            float[] primvars:displayOpacity = [1]
            matrix4d xformOp:transform = ( (-0.01473579620375487, -0.00021897924232272548, 0.9998913982820027, 0), (-0.9998912669834262, 0.0005605313669734269, -0.014735671510687165, 0), (-0.0005572436861241981, -0.9999998189263253, -0.00022721530804137302, 0), (0.005257507711314073, 0.00001467814150763251, -0.00030882245493819784, 1) )
            uniform token[] xformOpOrder = ["xformOp:transform"]
        }

        def Xform "montessori_hole_1" (
            prepend apiSchemas = ["MujocoBodyAPI", "PhysicsMassAPI"]
        )
        {
            point3f mujoco:body:pos = (0.025, 0.091, 0.04)
            quatf mujoco:body:quat = (1, 0, 0, 0)
            point3f physics:centerOfMass = (0.025, 0.091, 0.04)
            float3 physics:diagonalInertia = (0, 0, 0)
            float physics:mass = 0
            quatf physics:principalAxes = (1, 0, 0, 0)
            matrix4d xformOp:transform = ( (1, 0, 0, 0), (0, 1, 0, 0), (0, 0, 1, 0), (0.025, 0.091, 0.04, 1) )
            uniform token[] xformOpOrder = ["xformOp:transform"]
        }

        def Xform "montessori_hole_2" (
            prepend apiSchemas = ["MujocoBodyAPI", "PhysicsMassAPI"]
        )
        {
            point3f mujoco:body:pos = (0.0185, 0, 0.04)
            quatf mujoco:body:quat = (1, 0, 0, 0)
            point3f physics:centerOfMass = (0.0185, 0, 0.04)
            float3 physics:diagonalInertia = (0, 0, 0)
            float physics:mass = 0
            quatf physics:principalAxes = (1, 0, 0, 0)
            matrix4d xformOp:transform = ( (1, 0, 0, 0), (0, 1, 0, 0), (0, 0, 1, 0), (0.0185, 0, 0.04, 1) )
            uniform token[] xformOpOrder = ["xformOp:transform"]
        }

        def Xform "montessori_hole_3" (
            prepend apiSchemas = ["MujocoBodyAPI", "PhysicsMassAPI"]
        )
        {
            point3f mujoco:body:pos = (0.0205, -0.087, 0.04)
            quatf mujoco:body:quat = (1, 0, 0, 0)
            point3f physics:centerOfMass = (0.0205, -0.087, 0.04)
            float3 physics:diagonalInertia = (0, 0, 0)
            float physics:mass = 0
            quatf physics:principalAxes = (1, 0, 0, 0)
            matrix4d xformOp:transform = ( (1, 0, 0, 0), (0, 1, 0, 0), (0, 0, 1, 0), (0.0205, -0.087, 0.04, 1) )
            uniform token[] xformOpOrder = ["xformOp:transform"]
        }

        def Xform "montessori_hole_4" (
            prepend apiSchemas = ["MujocoBodyAPI", "PhysicsMassAPI"]
        )
        {
            point3f mujoco:body:pos = (-0.0175, 0.091, 0.04)
            quatf mujoco:body:quat = (1, 0, 0, 0)
            point3f physics:centerOfMass = (-0.0175, 0.091, 0.04)
            float3 physics:diagonalInertia = (0, 0, 0)
            float physics:mass = 0
            quatf physics:principalAxes = (1, 0, 0, 0)
            matrix4d xformOp:transform = ( (1, 0, 0, 0), (0, 1, 0, 0), (0, 0, 1, 0), (-0.0175, 0.091, 0.04, 1) )
            uniform token[] xformOpOrder = ["xformOp:transform"]
        }

        def Xform "montessori_hole_5" (
            prepend apiSchemas = ["MujocoBodyAPI", "PhysicsMassAPI"]
        )
        {
            point3f mujoco:body:pos = (-0.0265, 0, 0.04)
            quatf mujoco:body:quat = (1, 0, 0, 0)
            point3f physics:centerOfMass = (-0.0265, 0, 0.04)
            float3 physics:diagonalInertia = (0, 0, 0)
            float physics:mass = 0
            quatf physics:principalAxes = (1, 0, 0, 0)
            matrix4d xformOp:transform = ( (1, 0, 0, 0), (0, 1, 0, 0), (0, 0, 1, 0), (-0.0265, 0, 0.04, 1) )
            uniform token[] xformOpOrder = ["xformOp:transform"]
        }

        def Xform "montessori_hole_6" (
            prepend apiSchemas = ["MujocoBodyAPI", "PhysicsMassAPI"]
        )
        {
            point3f mujoco:body:pos = (-0.0215, -0.087, 0.04)
            quatf mujoco:body:quat = (1, 0, 0, 0)
            point3f physics:centerOfMass = (-0.0215, -0.087, 0.04)
            float3 physics:diagonalInertia = (0, 0, 0)
            float physics:mass = 0
            quatf physics:principalAxes = (1, 0, 0, 0)
            matrix4d xformOp:transform = ( (1, 0, 0, 0), (0, 1, 0, 0), (0, 0, 1, 0), (-0.0215, -0.087, 0.04, 1) )
            uniform token[] xformOpOrder = ["xformOp:transform"]
        }

        def PhysicsPrismaticJoint "montessori_drawer_1_joint" (
            prepend apiSchemas = ["MujocoJointAPI"]
        )
        {
            vector3f mujoco:joint:axis = (-1, 0, 0)
            point3f mujoco:joint:pos = (0, 0, 0)
            float2 mujoco:joint:range = (0, 0.1)
            uniform token mujoco:joint:type = "slide"
            uniform token physics:axis = "Z"
            rel physics:body0 = </montessori_toys/montessori_box>
            rel physics:body1 = </montessori_toys/montessori_drawer_1>
            bool physics:collisionEnabled = 0
            point3f physics:localPos0 = (-0.003, 0.087, 0)
            point3f physics:localPos1 = (0, 0, 0)
            quatf physics:localRot0 = (0.7071068, 0, -0.7071068, 0)
            quatf physics:localRot1 = (0.7071068, 0, -0.7071068, 0)
            float physics:lowerLimit = 0
            float physics:upperLimit = 0.1
        }

        def PhysicsPrismaticJoint "montessori_drawer_2_joint" (
            prepend apiSchemas = ["MujocoJointAPI"]
        )
        {
            vector3f mujoco:joint:axis = (-1, 0, 0)
            point3f mujoco:joint:pos = (0, 0, 0)
            float2 mujoco:joint:range = (0, 0.1)
            uniform token mujoco:joint:type = "slide"
            uniform token physics:axis = "Z"
            rel physics:body0 = </montessori_toys/montessori_box>
            rel physics:body1 = </montessori_toys/montessori_drawer_2>
            bool physics:collisionEnabled = 0
            point3f physics:localPos0 = (-0.003, 0, 0)
            point3f physics:localPos1 = (0, 0, 0)
            quatf physics:localRot0 = (0.7071068, 0, -0.7071068, 0)
            quatf physics:localRot1 = (0.7071068, 0, -0.7071068, 0)
            float physics:lowerLimit = 0
            float physics:upperLimit = 0.1
        }

        def PhysicsPrismaticJoint "montessori_drawer_3_joint" (
            prepend apiSchemas = ["MujocoJointAPI"]
        )
        {
            vector3f mujoco:joint:axis = (-1, 0, 0)
            point3f mujoco:joint:pos = (0, 0, 0)
            float2 mujoco:joint:range = (0, 0.1)
            uniform token mujoco:joint:type = "slide"
            uniform token physics:axis = "Z"
            rel physics:body0 = </montessori_toys/montessori_box>
            rel physics:body1 = </montessori_toys/montessori_drawer_3>
            bool physics:collisionEnabled = 0
            point3f physics:localPos0 = (-0.003, -0.087, 0)
            point3f physics:localPos1 = (0, 0, 0)
            quatf physics:localRot0 = (0.7071068, 0, -0.7071068, 0)
            quatf physics:localRot1 = (0.7071068, 0, -0.7071068, 0)
            float physics:lowerLimit = 0
            float physics:upperLimit = 0.1
        }
    }

    def Xform "montessori_drawer_1" (
        prepend apiSchemas = ["MujocoBodyAPI", "PhysicsRigidBodyAPI", "PhysicsMassAPI"]
    )
    {
        point3f mujoco:body:pos = (-0.003, 0.087, 0)
        quatf mujoco:body:quat = (1, 0, 0, 0)
        point3f physics:centerOfMass = (0.0257486, 5.70399e-8, -0.00258182)
        float3 physics:diagonalInertia = (0.000164339, 0.000202005, 0.000267194)
        float physics:mass = 0.132188
        quatf physics:principalAxes = (0.9998726, -8.210307e-9, 0.015958594, -1.6337394e-8)
        bool physics:rigidBodyEnabled = 1
        matrix4d xformOp:transform = ( (1, 0, 0, 0), (0, 1, 0, 0), (0, 0, 1, 0), (-0.003, 0.087, 0, 1) )
        uniform token[] xformOpOrder = ["xformOp:transform"]

        def Mesh "MontessoriDrawer1" (
            prepend apiSchemas = ["MujocoGeomAPI"]
            prepend references = @./montessori_toys/meshes/usd/montessori_box_MontessoriDrawer.usda@</montessori_box_MontessoriDrawer>
        )
        {
            rel mujoco:geom:mesh = </mujoco/asset/meshes/montessori_box_MontessoriDrawer>
            point3f mujoco:geom:pos = (0.00039275453, -5.131831e-10, -0.004749107)
            quatf mujoco:geom:quat = (0, 0.70671564, 0, 0.7074977)
            vector3f mujoco:geom:size = (1, 1, 1)
            uniform token mujoco:geom:type = "mesh"
            color3f[] primvars:displayColor = [(1, 0.83, 0.67)]
            float[] primvars:displayOpacity = [1]
            matrix4d xformOp:transform = ( (-0.001106051420124432, 0, 0.9999993883249452, 0), (0, -1.0000000000000084, 0, 0), (0.9999993883249452, 0, 0.0011060514201159943, 0), (0.0003927545432970994, -5.131831144617359e-10, -0.004749107232882171, 1) )
            uniform token[] xformOpOrder = ["xformOp:transform"]
        }

        def Xform "montessori_drawer_1_handle" (
            prepend apiSchemas = ["MujocoBodyAPI", "PhysicsMassAPI"]
        )
        {
            point3f mujoco:body:pos = (-0.061, 0, 0.001)
            quatf mujoco:body:quat = (1, 0, 0, 0)
            point3f physics:centerOfMass = (0.00391558, 7.50302e-9, -7.7999e-11)
            float3 physics:diagonalInertia = (2.26772e-7, 3.54304e-7, 3.54724e-7)
            float physics:mass = 0.00573975
            quatf physics:principalAxes = (0.70710677, -0.70710677, -4.6461685e-7, 4.8734387e-7)
            matrix4d xformOp:transform = ( (1, 0, 0, 0), (0, 1, 0, 0), (0, 0, 1, 0), (-0.061, 0, 0.001, 1) )
            uniform token[] xformOpOrder = ["xformOp:transform"]

            def Mesh "MontessoriDrawer1Handle" (
                prepend apiSchemas = ["MujocoGeomAPI"]
                prepend references = @./montessori_toys/meshes/usd/montessori_box_MontessoriDrawerHandle.usda@</montessori_box_MontessoriDrawerHandle>
            )
            {
                rel mujoco:geom:mesh = </mujoco/asset/meshes/montessori_box_MontessoriDrawerHandle>
                point3f mujoco:geom:pos = (0.0039155805, 7.5257525e-9, -2.2858904e-11)
                quatf mujoco:geom:quat = (0.5, 0.5, 0.5, 0.5)
                vector3f mujoco:geom:size = (1, 1, 1)
                uniform token mujoco:geom:type = "mesh"
                color3f[] primvars:displayColor = [(0.89, 0.67, 0.57)]
                float[] primvars:displayOpacity = [1]
                matrix4d xformOp:transform = ( (-2.6645352591003757e-15, 1.0000000000000027, 0, 0), (0, -2.6645352591003757e-15, 1.0000000000000027, 0), (1.0000000000000027, 0, -2.6645352591003757e-15, 0), (0.003915580593123038, 7.52575280072505e-9, -2.285890351346911e-11, 1) )
                uniform token[] xformOpOrder = ["xformOp:transform"]
            }
        }
    }

    def Xform "montessori_drawer_2" (
        prepend apiSchemas = ["MujocoBodyAPI", "PhysicsRigidBodyAPI", "PhysicsMassAPI"]
    )
    {
        point3f mujoco:body:pos = (-0.003, 0, 0)
        quatf mujoco:body:quat = (1, 0, 0, 0)
        point3f physics:centerOfMass = (0.0257486, 5.70399e-8, -0.00258182)
        float3 physics:diagonalInertia = (0.000164339, 0.000202005, 0.000267194)
        float physics:mass = 0.132188
        quatf physics:principalAxes = (0.9998726, -8.210307e-9, 0.015958594, -1.6337394e-8)
        bool physics:rigidBodyEnabled = 1
        matrix4d xformOp:transform = ( (1, 0, 0, 0), (0, 1, 0, 0), (0, 0, 1, 0), (-0.003, 0, 0, 1) )
        uniform token[] xformOpOrder = ["xformOp:transform"]

        def Mesh "MontessoriDrawer2" (
            prepend apiSchemas = ["MujocoGeomAPI"]
            prepend references = @./montessori_toys/meshes/usd/montessori_box_MontessoriDrawer.usda@</montessori_box_MontessoriDrawer>
        )
        {
            rel mujoco:geom:mesh = </mujoco/asset/meshes/montessori_box_MontessoriDrawer>
            point3f mujoco:geom:pos = (0.00039275453, -5.131831e-10, -0.004749107)
            quatf mujoco:geom:quat = (0, 0.70671564, 0, 0.7074977)
            vector3f mujoco:geom:size = (1, 1, 1)
            uniform token mujoco:geom:type = "mesh"
            color3f[] primvars:displayColor = [(0.99, 0.73, 0.55)]
            float[] primvars:displayOpacity = [1]
            matrix4d xformOp:transform = ( (-0.001106051420124432, 0, 0.9999993883249452, 0), (0, -1.0000000000000084, 0, 0), (0.9999993883249452, 0, 0.0011060514201159943, 0), (0.0003927545432970994, -5.131831144617359e-10, -0.004749107232882171, 1) )
            uniform token[] xformOpOrder = ["xformOp:transform"]
        }

        def Xform "montessori_drawer_2_handle" (
            prepend apiSchemas = ["MujocoBodyAPI", "PhysicsMassAPI"]
        )
        {
            point3f mujoco:body:pos = (-0.061, 0, 0.001)
            quatf mujoco:body:quat = (1, 0, 0, 0)
            point3f physics:centerOfMass = (0.00391558, 7.50302e-9, -7.7999e-11)
            float3 physics:diagonalInertia = (2.26772e-7, 3.54304e-7, 3.54724e-7)
            float physics:mass = 0.00573975
            quatf physics:principalAxes = (0.70710677, -0.70710677, -4.6461685e-7, 4.8734387e-7)
            matrix4d xformOp:transform = ( (1, 0, 0, 0), (0, 1, 0, 0), (0, 0, 1, 0), (-0.061, 0, 0.001, 1) )
            uniform token[] xformOpOrder = ["xformOp:transform"]

            def Mesh "MontessoriDrawer2Handle" (
                prepend apiSchemas = ["MujocoGeomAPI"]
                prepend references = @./montessori_toys/meshes/usd/montessori_box_MontessoriDrawerHandle.usda@</montessori_box_MontessoriDrawerHandle>
            )
            {
                rel mujoco:geom:mesh = </mujoco/asset/meshes/montessori_box_MontessoriDrawerHandle>
                point3f mujoco:geom:pos = (0.0039155805, 7.5257525e-9, -2.2858904e-11)
                quatf mujoco:geom:quat = (0.5, 0.5, 0.5, 0.5)
                vector3f mujoco:geom:size = (1, 1, 1)
                uniform token mujoco:geom:type = "mesh"
                color3f[] primvars:displayColor = [(0.89, 0.67, 0.57)]
                float[] primvars:displayOpacity = [1]
                matrix4d xformOp:transform = ( (-2.6645352591003757e-15, 1.0000000000000027, 0, 0), (0, -2.6645352591003757e-15, 1.0000000000000027, 0), (1.0000000000000027, 0, -2.6645352591003757e-15, 0), (0.003915580593123038, 7.52575280072505e-9, -2.285890351346911e-11, 1) )
                uniform token[] xformOpOrder = ["xformOp:transform"]
            }
        }
    }

    def Xform "montessori_drawer_3" (
        prepend apiSchemas = ["MujocoBodyAPI", "PhysicsRigidBodyAPI", "PhysicsMassAPI"]
    )
    {
        point3f mujoco:body:pos = (-0.003, -0.087, 0)
        quatf mujoco:body:quat = (1, 0, 0, 0)
        point3f physics:centerOfMass = (0.0257486, 5.70399e-8, -0.00258182)
        float3 physics:diagonalInertia = (0.000164339, 0.000202005, 0.000267194)
        float physics:mass = 0.132188
        quatf physics:principalAxes = (0.9998726, -8.210307e-9, 0.015958594, -1.6337394e-8)
        bool physics:rigidBodyEnabled = 1
        matrix4d xformOp:transform = ( (1, 0, 0, 0), (0, 1, 0, 0), (0, 0, 1, 0), (-0.003, -0.087, 0, 1) )
        uniform token[] xformOpOrder = ["xformOp:transform"]

        def Mesh "MontessoriDrawer3" (
            prepend apiSchemas = ["MujocoGeomAPI"]
            prepend references = @./montessori_toys/meshes/usd/montessori_box_MontessoriDrawer.usda@</montessori_box_MontessoriDrawer>
        )
        {
            rel mujoco:geom:mesh = </mujoco/asset/meshes/montessori_box_MontessoriDrawer>
            point3f mujoco:geom:pos = (0.00039275453, -5.131831e-10, -0.004749107)
            quatf mujoco:geom:quat = (0, 0.70671564, 0, 0.7074977)
            vector3f mujoco:geom:size = (1, 1, 1)
            uniform token mujoco:geom:type = "mesh"
            color3f[] primvars:displayColor = [(0.87, 0.94, 0.98)]
            float[] primvars:displayOpacity = [1]
            matrix4d xformOp:transform = ( (-0.001106051420124432, 0, 0.9999993883249452, 0), (0, -1.0000000000000084, 0, 0), (0.9999993883249452, 0, 0.0011060514201159943, 0), (0.0003927545432970994, -5.131831144617359e-10, -0.004749107232882171, 1) )
            uniform token[] xformOpOrder = ["xformOp:transform"]
        }

        def Xform "montessori_drawer_3_handle" (
            prepend apiSchemas = ["MujocoBodyAPI", "PhysicsMassAPI"]
        )
        {
            point3f mujoco:body:pos = (-0.061, 0, 0.001)
            quatf mujoco:body:quat = (1, 0, 0, 0)
            point3f physics:centerOfMass = (0.00391558, 7.50302e-9, -7.7999e-11)
            float3 physics:diagonalInertia = (2.26772e-7, 3.54304e-7, 3.54724e-7)
            float physics:mass = 0.00573975
            quatf physics:principalAxes = (0.70710677, -0.70710677, -4.6461685e-7, 4.8734387e-7)
            matrix4d xformOp:transform = ( (1, 0, 0, 0), (0, 1, 0, 0), (0, 0, 1, 0), (-0.061, 0, 0.001, 1) )
            uniform token[] xformOpOrder = ["xformOp:transform"]

            def Mesh "MontessoriDrawer3Handle" (
                prepend apiSchemas = ["MujocoGeomAPI"]
                prepend references = @./montessori_toys/meshes/usd/montessori_box_MontessoriDrawerHandle.usda@</montessori_box_MontessoriDrawerHandle>
            )
            {
                rel mujoco:geom:mesh = </mujoco/asset/meshes/montessori_box_MontessoriDrawerHandle>
                point3f mujoco:geom:pos = (0.0039155805, 7.5257525e-9, -2.2858904e-11)
                quatf mujoco:geom:quat = (0.5, 0.5, 0.5, 0.5)
                vector3f mujoco:geom:size = (1, 1, 1)
                uniform token mujoco:geom:type = "mesh"
                color3f[] primvars:displayColor = [(0.89, 0.67, 0.57)]
                float[] primvars:displayOpacity = [1]
                matrix4d xformOp:transform = ( (-2.6645352591003757e-15, 1.0000000000000027, 0, 0), (0, -2.6645352591003757e-15, 1.0000000000000027, 0), (1.0000000000000027, 0, -2.6645352591003757e-15, 0), (0.003915580593123038, 7.52575280072505e-9, -2.285890351346911e-11, 1) )
                uniform token[] xformOpOrder = ["xformOp:transform"]
            }
        }
    }

    def Xform "montessori_object_1" (
        prepend apiSchemas = ["PhysicsRigidBodyAPI", "PhysicsMassAPI"]
    )
    {
        point3f physics:centerOfMass = (0, 0, 0)
        float3 physics:diagonalInertia = (2.38973e-7, 2.38973e-7, 4.53745e-7)
        float physics:mass = 0.00411518
        quatf physics:principalAxes = (1, 0, 0, 0)
        bool physics:rigidBodyEnabled = 1

        def Cylinder "MontessoriObject1" (
            prepend apiSchemas = ["MujocoGeomAPI"]
        )
        {
            float3[] extent = [(-0.022, -0.022, -0.002), (0.022, 0.022, 0.002)]
            double height = 0.004
            point3f mujoco:geom:pos = (0, 0, 0)
            quatf mujoco:geom:quat = (1, 0, 0, 0)
            vector3f mujoco:geom:size = (0.022, 0.002, 0)
            uniform token mujoco:geom:type = "cylinder"
            color3f[] primvars:displayColor = [(1, 0.83, 0.67)]
            float[] primvars:displayOpacity = [1]
            double radius = 0.022
            matrix4d xformOp:transform = ( (1, 0, 0, 0), (0, 1, 0, 0), (0, 0, 1, 0), (0, 0, 0, 1) )
            uniform token[] xformOpOrder = ["xformOp:transform"]
        }
    }

    def Xform "montessori_object_2" (
        prepend apiSchemas = ["PhysicsRigidBodyAPI", "PhysicsMassAPI"]
    )
    {
        point3f physics:centerOfMass = (0, 0, 0)
        float3 physics:diagonalInertia = (0.00000125081, 0.00000125081, 8.33876e-7)
        float physics:mass = 0.0113441
        quatf physics:principalAxes = (1, 0, 0, 0)
        bool physics:rigidBodyEnabled = 1

        def Mesh "MontessoriObject2" (
            prepend apiSchemas = ["MujocoGeomAPI"]
            prepend references = @./montessori_toys/meshes/usd/montessori_object_2_MontessoriObject_002.usda@</montessori_object_2_MontessoriObject_002>
        )
        {
            rel mujoco:geom:mesh = </mujoco/asset/meshes/montessori_object_2_MontessoriObject_002>
            point3f mujoco:geom:pos = (-0.0058199936, -2.7842137e-20, 3.7252903e-9)
            quatf mujoco:geom:quat = (1, 0, 0, 0)
            vector3f mujoco:geom:size = (1, 1, 1)
            uniform token mujoco:geom:type = "mesh"
            color3f[] primvars:displayColor = [(0.99, 0.73, 0.55)]
            float[] primvars:displayOpacity = [1]
            matrix4d xformOp:transform = ( (1, 0, 0, 0), (0, 1, 0, 0), (0, 0, 1, 0), (-0.005819993688621455, -2.784213738573783e-20, 3.725290298687784e-9, 1) )
            uniform token[] xformOpOrder = ["xformOp:transform"]
        }
    }

    def Xform "montessori_object_3" (
        prepend apiSchemas = ["PhysicsRigidBodyAPI", "PhysicsMassAPI"]
    )
    {
        point3f physics:centerOfMass = (0, 0, 0)
        float3 physics:diagonalInertia = (5.07195e-7, 5.07195e-7, 5.07195e-7)
        float physics:mass = 0.00776239
        quatf physics:principalAxes = (1, 0, 0, 0)
        bool physics:rigidBodyEnabled = 1

        def Cube "MontessoriObject3" (
            prepend apiSchemas = ["MujocoGeomAPI"]
        )
        {
            float3[] extent = [(-1, -1, -1), (1, 1, 1)]
            point3f mujoco:geom:pos = (0, 0, 0)
            quatf mujoco:geom:quat = (1, 0, 0, 0)
            vector3f mujoco:geom:size = (0.015, 0.015, 0.015)
            uniform token mujoco:geom:type = "box"
            color3f[] primvars:displayColor = [(0.87, 0.94, 0.98)]
            float[] primvars:displayOpacity = [1]
            matrix4d xformOp:transform = ( (0.015, 0, 0, 0), (0, 0.015, 0, 0), (0, 0, 0.015, 0), (0, 0, 0, 1) )
            uniform token[] xformOpOrder = ["xformOp:transform"]
        }
    }

    def Xform "montessori_object_4" (
        prepend apiSchemas = ["PhysicsRigidBodyAPI", "PhysicsMassAPI"]
    )
    {
        point3f physics:centerOfMass = (0, 0, 0)
        float3 physics:diagonalInertia = (0.00000120999, 0.00000120999, 0.00000120999)
        float physics:mass = 0.0137173
        quatf physics:principalAxes = (1, 0, 0, 0)
        bool physics:rigidBodyEnabled = 1

        def Sphere "MontessoriObject4" (
            prepend apiSchemas = ["MujocoGeomAPI"]
        )
        {
            float3[] extent = [(-0.02, -0.02, -0.02), (0.02, 0.02, 0.02)]
            point3f mujoco:geom:pos = (0, 0, 0)
            quatf mujoco:geom:quat = (1, 0, 0, 0)
            vector3f mujoco:geom:size = (0.02, 0, 0)
            uniform token mujoco:geom:type = "sphere"
            color3f[] primvars:displayColor = [(1, 0.83, 0.67)]
            float[] primvars:displayOpacity = [1]
            double radius = 0.02
            matrix4d xformOp:transform = ( (1, 0, 0, 0), (0, 1, 0, 0), (0, 0, 1, 0), (0, 0, 0, 1) )
            uniform token[] xformOpOrder = ["xformOp:transform"]
        }
    }

    def Xform "montessori_object_5" (
        prepend apiSchemas = ["PhysicsRigidBodyAPI", "PhysicsMassAPI"]
    )
    {
        point3f physics:centerOfMass = (0, 0, 0)
        float3 physics:diagonalInertia = (0.00000128384, 7.13243e-7, 7.13243e-7)
        float physics:mass = 0.00873269
        quatf physics:principalAxes = (1, 0, 0, 0)
        bool physics:rigidBodyEnabled = 1

        def Cube "MontessoriObject5" (
            prepend apiSchemas = ["MujocoGeomAPI"]
        )
        {
            float3[] extent = [(-1, -1, -1), (1, 1, 1)]
            point3f mujoco:geom:pos = (0, 0, 0)
            quatf mujoco:geom:quat = (1, 0, 0, 0)
            vector3f mujoco:geom:size = (0.01, 0.02, 0.015)
            uniform token mujoco:geom:type = "box"
            color3f[] primvars:displayColor = [(0.99, 0.73, 0.55)]
            float[] primvars:displayOpacity = [1]
            matrix4d xformOp:transform = ( (0.01, 0, 0, 0), (0, 0.02, 0, 0), (0, 0, 0.015, 0), (0, 0, 0, 1) )
            uniform token[] xformOpOrder = ["xformOp:transform"]
        }
    }

    def Xform "montessori_object_6" (
        prepend apiSchemas = ["PhysicsRigidBodyAPI", "PhysicsMassAPI"]
    )
    {
        point3f physics:centerOfMass = (0, 0, 0)
        float3 physics:diagonalInertia = (3.48556e-7, 3.48556e-7, 2.98762e-7)
        float physics:mass = 0.00609657
        quatf physics:principalAxes = (1, 0, 0, 0)
        bool physics:rigidBodyEnabled = 1

        def Cylinder "MontessoriObject6" (
            prepend apiSchemas = ["MujocoGeomAPI"]
        )
        {
            float3[] extent = [(-0.015, -0.015, -0.015), (0.015, 0.015, 0.015)]
            double height = 0.03
            point3f mujoco:geom:pos = (0, 0, 0)
            quatf mujoco:geom:quat = (1, 0, 0, 0)
            vector3f mujoco:geom:size = (0.015, 0.015, 0)
            uniform token mujoco:geom:type = "cylinder"
            color3f[] primvars:displayColor = [(0.87, 0.94, 0.98)]
            float[] primvars:displayOpacity = [1]
            double radius = 0.015
            matrix4d xformOp:transform = ( (1, 0, 0, 0), (0, 1, 0, 0), (0, 0, 1, 0), (0, 0, 0, 1) )
            uniform token[] xformOpOrder = ["xformOp:transform"]
        }
    }
}

