#usda 1.0
(
    defaultPrim = "montessori_box_MontessoriBox"
    metersPerUnit = 1
    upAxis = "Z"
)

def Mesh "montessori_box_MontessoriBox"
{
    int[] faceVertexCounts = [3, 3, 3, 3, 3, 3, 3, 3, 3, 3, 3, 3, 3, 3, 3, 3, 3, 3, 3, 3, 3, 3, 3, 3, 3, 3, 3, 3, 3, 3, 3, 3, 3, 3, 3, 3, 3, 3, 3, 3, 3, 3, 3, 3, 3, 3, 3, 3, 3, 3, 3, 3, 3, 3, 3, 3, 3, 3, 3, 3, 3, 3, 3, 3, 3, 3, 3, 3, 3, 3, 3, 3, 3, 3, 3, 3, 3, 3, 3, 3, 3, 3, 3, 3, 3, 3, 3, 3, 3, 3, 3, 3, 3, 3, 3, 3, 3, 3, 3, 3, 3, 3, 3, 3, 3, 3, 3, 3, 3, 3, 3, 3, 3, 3, 3, 3, 3, 3, 3, 3, 3, 3, 3, 3, 3, 3, 3, 3, 3, 3, 3, 3, 3, 3, 3, 3, 3, 3, 3, 3, 3, 3, 3, 3, 3, 3, 3, 3, 3, 3, 3, 3, 3, 3, 3, 3, 3, 3, 3, 3, 3, 3, 3, 3, 3, 3, 3, 3, 3, 3, 3, 3, 3, 3, 3, 3, 3, 3, 3, 3, 3, 3, 3, 3, 3, 3, 3, 3, 3, 3, 3, 3, 3, 3, 3, 3, 3, 3, 3, 3, 3, 3, 3, 3, 3, 3, 3, 3, 3, 3, 3, 3, 3, 3, 3, 3, 3, 3, 3, 3, 3, 3, 3, 3, 3, 3, 3, 3, 3, 3, 3, 3, 3, 3, 3, 3, 3, 3, 3, 3, 3, 3, 3, 3, 3, 3, 3, 3, 3, 3, 3, 3, 3, 3, 3, 3, 3, 3, 3, 3, 3, 3, 3, 3, 3, 3, 3, 3, 3, 3, 3, 3, 3, 3, 3, 3, 3, 3, 3, 3, 3, 3, 3, 3, 3, 3, 3, 3, 3, 3, 3, 3, 3, 3, 3, 3, 3, 3, 3, 3, 3, 3, 3, 3, 3, 3, 3, 3, 3, 3, 3, 3, 3, 3, 3, 3, 3, 3, 3, 3, 3, 3, 3, 3, 3, 3, 3, 3, 3, 3, 3, 3, 3, 3, 3, 3, 3, 3, 3, 3, 3, 3, 3, 3, 3, 3, 3, 3, 3, 3, 3, 3, 3, 3, 3, 3, 3, 3, 3, 3, 3, 3, 3, 3, 3, 3, 3, 3, 3, 3, 3, 3, 3, 3, 3, 3, 3, 3, 3, 3, 3, 3, 3, 3, 3, 3, 3, 3, 3, 3, 3, 3, 3, 3, 3, 3, 3, 3, 3, 3, 3, 3, 3, 3, 3, 3, 3, 3, 3, 3, 3, 3, 3, 3, 3, 3, 3, 3, 3, 3, 3, 3, 3, 3, 3, 3, 3, 3, 3, 3, 3, 3, 3, 3, 3, 3, 3, 3]
    int[] faceVertexIndices = [0, 1, 2, 0, 2, 3, 1, 4, 5, 1, 5, 2, 4, 6, 7, 4, 7, 5, 6, 0, 3, 6, 3, 7, 1, 0, 6, 1, 6, 4, 5, 7, 3, 5, 3, 2, 8, 9, 10, 8, 10, 11, 11, 10, 12, 11, 12, 13, 13, 12, 14, 13, 14, 15, 15, 14, 9, 15, 9, 8, 16, 17, 18, 19, 20, 21, 16, 18, 19, 22, 23, 16, 24, 22, 16, 16, 19, 21, 21, 25, 26, 21, 26, 27, 28, 24, 16, 29, 28, 16, 16, 21, 27, 16, 27, 30, 31, 29, 16, 32, 31, 16, 16, 30, 33, 16, 33, 34, 35, 32, 16, 16, 34, 36, 16, 36, 35, 37, 38, 39, 39, 40, 41, 39, 41, 42, 43, 44, 37, 39, 42, 45, 39, 45, 46, 43, 37, 39, 47, 43, 39, 39, 46, 48, 47, 39, 48, 49, 47, 48, 49, 48, 50, 51, 52, 53, 49, 50, 54, 55, 51, 53, 49, 54, 56, 57, 55, 53, 49, 56, 58, 59, 57, 53, 49, 58, 60, 61, 59, 53, 49, 60, 62, 63, 61, 53, 49, 62, 64, 65, 63, 53, 49, 64, 66, 67, 65, 53, 49, 66, 68, 69, 67, 53, 49, 68, 70, 49, 70, 71, 49, 71, 72, 49, 72, 73, 49, 73, 74, 75, 76, 8, 11, 77, 78, 11, 78, 79, 80, 75, 8, 81, 80, 8, 11, 79, 82, 11, 82, 83, 84, 81, 8, 74, 84, 8, 11, 83, 69, 11, 69, 53, 74, 8, 11, 11, 53, 49, 74, 11, 49, 85, 77, 11, 8, 76, 86, 8, 86, 87, 85, 11, 13, 88, 85, 13, 15, 8, 87, 15, 87, 89, 90, 88, 13, 91, 90, 13, 15, 89, 92, 15, 92, 93, 94, 91, 13, 95, 94, 13, 15, 93, 96, 97, 40, 39, 15, 96, 97, 98, 95, 13, 99, 98, 13, 15, 97, 39, 15, 39, 100, 101, 99, 13, 13, 15, 100, 102, 38, 37, 13, 100, 102, 103, 104, 105, 106, 103, 105, 106, 105, 107, 106, 107, 108, 102, 37, 109, 109, 110, 111, 109, 111, 112, 13, 102, 109, 106, 108, 101, 109, 112, 113, 106, 101, 13, 13, 109, 113, 13, 113, 106, 114, 111, 110, 44, 43, 52, 114, 110, 44, 104, 103, 114, 115, 104, 114, 114, 44, 52, 52, 51, 116, 52, 116, 117, 115, 114, 52, 118, 115, 52, 52, 117, 119, 52, 119, 118, 120, 18, 121, 122, 123, 14, 120, 121, 122, 124, 21, 20, 125, 124, 20, 120, 122, 14, 125, 20, 120, 126, 125, 120, 120, 14, 12, 10, 127, 128, 10, 128, 129, 126, 120, 12, 26, 25, 130, 130, 126, 12, 12, 10, 129, 12, 129, 131, 132, 26, 130, 130, 12, 131, 130, 131, 133, 134, 132, 130, 135, 134, 130, 130, 133, 136, 130, 136, 137, 138, 135, 130, 130, 137, 139, 139, 138, 130, 140, 141, 142, 121, 143, 144, 121, 144, 145, 140, 142, 121, 146, 140, 121, 121, 145, 147, 121, 147, 146, 148, 143, 121, 121, 18, 17, 121, 17, 149, 150, 148, 121, 151, 150, 121, 151, 121, 149, 152, 151, 149, 23, 22, 153, 154, 152, 149, 23, 153, 155, 156, 154, 149, 23, 155, 157, 158, 156, 149, 159, 158, 149, 160, 159, 149, 161, 160, 149, 162, 161, 149, 163, 162, 149, 164, 163, 149, 142, 141, 165, 14, 123, 142, 166, 127, 10, 167, 166, 10, 9, 14, 142, 142, 165, 168, 142, 168, 169, 170, 167, 10, 171, 170, 10, 9, 142, 169, 9, 169, 172, 157, 171, 10, 23, 157, 10, 9, 172, 173, 9, 173, 174, 23, 10, 9, 149, 23, 9, 9, 174, 175, 9, 175, 176, 164, 149, 9, 177, 164, 9, 9, 176, 178, 9, 178, 179, 180, 177, 9, 9, 179, 180, 131, 90, 91, 131, 91, 133, 133, 91, 94, 133, 94, 136, 136, 94, 95, 136, 95, 137, 137, 95, 98, 137, 98, 139, 98, 99, 138, 98, 138, 139, 99, 101, 135, 99, 135, 138, 101, 108, 134, 101, 134, 135, 108, 107, 132, 108, 132, 134, 107, 105, 26, 107, 26, 132, 105, 104, 27, 105, 27, 26, 104, 115, 30, 104, 30, 27, 115, 118, 33, 115, 33, 30, 118, 119, 34, 118, 34, 33, 119, 117, 36, 119, 36, 34, 117, 116, 35, 117, 35, 36, 116, 51, 32, 116, 32, 35, 51, 55, 31, 51, 31, 32, 55, 57, 29, 55, 29, 31, 57, 59, 28, 57, 28, 29, 59, 61, 24, 59, 24, 28, 24, 61, 63, 24, 63, 22, 22, 63, 65, 22, 65, 153, 153, 65, 67, 153, 67, 155, 155, 67, 69, 155, 69, 157, 157, 69, 83, 157, 83, 171, 171, 83, 82, 171, 82, 170, 170, 82, 79, 170, 79, 167, 167, 79, 78, 167, 78, 166, 166, 78, 77, 166, 77, 127, 127, 77, 85, 127, 85, 128, 128, 85, 88, 128, 88, 129, 129, 88, 90, 129, 90, 131, 20, 19, 44, 110, 109, 120, 20, 44, 110, 20, 110, 120, 18, 37, 44, 18, 44, 19, 109, 37, 18, 109, 18, 120, 149, 49, 53, 149, 53, 23, 43, 16, 23, 23, 53, 52, 23, 52, 43, 43, 47, 17, 43, 17, 16, 47, 49, 149, 47, 149, 17, 142, 39, 38, 142, 38, 121, 121, 38, 102, 121, 102, 122, 102, 100, 123, 102, 123, 122, 100, 39, 142, 100, 142, 123, 154, 62, 60, 154, 60, 152, 152, 60, 58, 152, 58, 151, 151, 58, 56, 151, 56, 150, 150, 56, 54, 150, 54, 148, 54, 50, 143, 54, 143, 148, 50, 48, 144, 50, 144, 143, 48, 46, 145, 48, 145, 144, 46, 45, 147, 46, 147, 145, 45, 42, 146, 45, 146, 147, 42, 41, 140, 42, 140, 146, 41, 40, 141, 41, 141, 140, 40, 97, 165, 40, 165, 141, 97, 96, 168, 97, 168, 165, 96, 93, 169, 96, 169, 168, 93, 92, 172, 93, 172, 169, 92, 89, 173, 92, 173, 172, 89, 87, 174, 89, 174, 173, 87, 86, 175, 87, 175, 174, 86, 76, 176, 86, 176, 175, 76, 75, 178, 76, 178, 176, 178, 75, 80, 178, 80, 179, 179, 80, 81, 179, 81, 180, 180, 81, 84, 180, 84, 177, 177, 84, 74, 177, 74, 164, 164, 74, 73, 164, 73, 163, 163, 73, 72, 163, 72, 162, 162, 72, 71, 162, 71, 161, 161, 71, 70, 161, 70, 160, 160, 70, 68, 160, 68, 159, 159, 68, 66, 159, 66, 158, 158, 66, 64, 158, 64, 156, 156, 64, 62, 156, 62, 154, 103, 106, 130, 103, 130, 25, 124, 114, 103, 103, 25, 21, 21, 124, 103, 130, 106, 113, 130, 113, 126, 126, 113, 112, 126, 112, 125, 125, 112, 111, 111, 114, 124, 111, 124, 125, 181, 182, 183, 181, 183, 184, 184, 183, 185, 184, 185, 186, 186, 185, 187, 186, 187, 188, 188, 187, 182, 188, 182, 181, 184, 186, 188, 184, 188, 181, 185, 183, 182, 185, 182, 187, 189, 190, 191, 189, 191, 192, 192, 191, 193, 192, 193, 194, 194, 193, 195, 194, 195, 196, 196, 195, 190, 196, 190, 189, 192, 194, 196, 192, 196, 189, 193, 191, 190, 193, 190, 195, 197, 198, 199, 197, 199, 200, 200, 199, 201, 200, 201, 202, 202, 201, 203, 202, 203, 204, 204, 203, 198, 204, 198, 197, 200, 202, 204, 200, 204, 197, 201, 199, 198, 201, 198, 203, 205, 206, 207, 205, 207, 208, 206, 209, 210, 206, 210, 207, 209, 211, 212, 209, 212, 210, 211, 205, 208, 211, 208, 212, 206, 205, 211, 206, 211, 209, 210, 212, 208, 210, 208, 207, 213, 214, 215, 213, 215, 216, 216, 215, 217, 216, 217, 218, 218, 217, 219, 218, 219, 220, 220, 219, 214, 220, 214, 213, 216, 218, 220, 216, 220, 213, 217, 215, 214, 217, 214, 219]
    normal3f[] normals = [(-0.00021897924, 0.0005605314, -0.9999998), (0.00021897924, -0.0005605314, 0.9999998), (0.00021897924, -0.0005605314, 0.9999998), (-0.00021897924, 0.0005605314, -0.9999998), (0.00021897924, -0.0005605314, 0.9999998), (-0.00021897924, 0.0005605314, -0.9999998), (0.00021897924, -0.0005605314, 0.9999998), (0.00021897924, -0.0005605314, 0.9999998), (0.00021897924, -0.0005605314, 0.9999998), (0.00021897924, -0.0005605314, 0.9999998), (0.00021897924, -0.0005605314, 0.9999998), (0.00021897924, -0.0005605314, 0.9999998), (0.00021897924, -0.0005605314, 0.9999998), (-0.00021897924, 0.0005605314, -0.9999998), (-0.00021897924, 0.0005605314, -0.9999998), (0.00021897924, -0.0005605314, 0.9999998), (-0.00021897924, 0.0005605314, -0.9999998), (0.00021897924, -0.0005605314, 0.9999998), (-0.00021897924, 0.0005605314, -0.9999998), (-0.00021897924, 0.0005605314, -0.9999998), (-0.00021897924, 0.0005605314, -0.9999998), (-0.00021897924, 0.0005605314, -0.9999998), (-0.00021897924, 0.0005605314, -0.9999998), (-0.00021897924, 0.0005605314, -0.9999998), (0.00021897924, -0.0005605314, 0.9999998), (-0.00021897924, 0.0005605314, -0.9999998), (-0.00021897924, 0.0005605314, -0.9999998), (0.00021897924, -0.0005605314, 0.9999998), (-0.00021897924, 0.0005605314, -0.9999998), (0.00021897924, -0.0005605314, 0.9999998), (0.00021897924, -0.0005605314, 0.9999998), (-0.00021897924, 0.0005605314, -0.9999998), (-0.00021897924, 0.0005605314, -0.9999998), (0.00021897924, -0.0005605314, 0.9999998), (-0.00021897924, 0.0005605314, -0.9999998), (0.00021897924, -0.0005605314, 0.9999998), (-0.9998914, 0.014735672, 0.0002272153), (0.9998914, -0.014735672, -0.0002272153), (0.9998914, -0.014735672, -0.0002272153), (-0.9998914, 0.014735672, 0.0002272153), (0.9998914, -0.014735672, -0.0002272153), (-0.9998914, 0.014735672, 0.0002272153), (-0.9998914, 0.014735672, 0.0002272153), (0.9998914, -0.014735672, -0.0002272153), (0.9998914, -0.014735672, -0.0002272153), (-0.9998914, 0.014735672, 0.0002272153), (0.9998914, -0.014735672, -0.0002272153), (-0.9998914, 0.014735672, 0.0002272153), (-0.9998914, 0.014735672, 0.0002272153), (0.9998914, -0.014735672, -0.0002272153), (0.9998914, -0.014735672, -0.0002272153), (-0.9998914, 0.014735672, 0.0002272153), (0.9998914, -0.014735672, -0.0002272153), (-0.9998914, 0.014735672, 0.0002272153), (-0.9998914, 0.014735672, 0.0002272153), (0.9998914, -0.014735672, -0.0002272153), (0.9998914, -0.014735672, -0.0002272153), (-0.9998914, 0.014735672, 0.0002272153), (0.9998914, -0.014735672, -0.0002272153), (-0.9998914, 0.014735672, 0.0002272153), (0.9998914, -0.014735672, -0.0002272153), (0.9998914, -0.014735672, -0.0002272153), (0.9998914, -0.014735672, -0.0002272153), (0.9998914, -0.014735672, -0.0002272153), (0.9998914, -0.014735672, -0.0002272153), (0.9998914, -0.014735672, -0.0002272153), (0.9998914, -0.014735672, -0.0002272153), (0.9998914, -0.014735672, -0.0002272153), (0.9998914, -0.014735672, -0.0002272153), (0.9998914, -0.014735672, -0.0002272153), (0.9998914, -0.014735672, -0.0002272153), (0.9998914, -0.014735672, -0.0002272153), (0.9998914, -0.014735672, -0.0002272153), (0.9998914, -0.014735672, -0.0002272153), (0.9998914, -0.014735672, -0.0002272153), (0.9998914, -0.014735672, -0.0002272153), (0.9998914, -0.014735672, -0.0002272153), (0.9998914, -0.014735672, -0.0002272153), (0.9998914, -0.014735672, -0.0002272153), (0.9998914, -0.014735672, -0.0002272153), (0.9998914, -0.014735672, -0.0002272153), (0.9998914, -0.014735672, -0.0002272153), (0.9998914, -0.014735672, -0.0002272153), (0.9998914, -0.014735672, -0.0002272153), (0.9998914, -0.014735672, -0.0002272153), (0.9998914, -0.014735672, -0.0002272153), (0.9998914, -0.014735672, -0.0002272153), (0.9998914, -0.014735672, -0.0002272153), (0.9998914, -0.014735672, -0.0002272153), (0.9998914, -0.014735672, -0.0002272153), (0.9998914, -0.014735672, -0.0002272153), (0.9998914, -0.014735672, -0.0002272153), (0.9998914, -0.014735672, -0.0002272153), (0.9998914, -0.014735672, -0.0002272153), (0.9998914, -0.014735672, -0.0002272153), (0.9998914, -0.014735672, -0.0002272153), (0.9998914, -0.014735672, -0.0002272153), (0.9998914, -0.014735672, -0.0002272153), (0.9998914, -0.014735672, -0.0002272153), (0.9998914, -0.014735672, -0.0002272153), (0.9998914, -0.014735672, -0.0002272153), (0.9998914, -0.014735672, -0.0002272153), (0.9998914, -0.014735672, -0.0002272153), (0.9998914, -0.014735672, -0.0002272153), (0.9998914, -0.014735672, -0.0002272153), (0.9998914, -0.014735672, -0.0002272153), (0.9998914, -0.014735672, -0.0002272153), (0.9998914, -0.014735672, -0.0002272153), (0.9998914, -0.014735672, -0.0002272153), (0.9998914, -0.014735672, -0.0002272153), (0.9998914, -0.014735672, -0.0002272153), (0.9998914, -0.014735672, -0.0002272153), (0.9998914, -0.014735672, -0.0002272153), (0.9998914, -0.014735672, -0.0002272153), (0.9998914, -0.014735672, -0.0002272153), (0.9998914, -0.014735672, -0.0002272153), (0.9998914, -0.014735672, -0.0002272153), (-0.9998914, 0.014735672, 0.0002272153), (-0.9998914, 0.014735672, 0.0002272153), (-0.9998914, 0.014735672, 0.0002272153), (-0.9998914, 0.014735672, 0.0002272153), (0.9998914, -0.014735672, -0.0002272153), (0.9998914, -0.014735672, -0.0002272153), (-0.9998914, 0.014735672, 0.0002272153), (0.9998914, -0.014735672, -0.0002272153), (0.9998914, -0.014735672, -0.0002272153), (-0.9998914, 0.014735672, 0.0002272153), (-0.9998914, 0.014735672, 0.0002272153), (-0.9998914, 0.014735672, 0.0002272153), (-0.9998914, 0.014735672, 0.0002272153), (0.9998914, -0.014735672, -0.0002272153), (0.9998914, -0.014735672, -0.0002272153), (-0.9998914, 0.014735672, 0.0002272153), (0.9998914, -0.014735672, -0.0002272153), (0.014574852, 0.98646015, 0.16335283), (-0.9998914, 0.014735672, 0.0002272153), (-0.9998914, 0.014735672, 0.0002272153), (-0.9998914, 0.014735672, 0.0002272153), (-0.9998914, 0.014735672, 0.0002272153), (-0.9998914, 0.014735672, 0.0002272153), (-0.9998914, 0.014735672, 0.0002272153), (-0.9998914, 0.014735672, 0.0002272153), (0.014574852, 0.98646015, 0.16335283), (-0.9998914, 0.014735672, 0.0002272153), (-0.9998914, 0.014735672, 0.0002272153), (-0.9998914, 0.014735672, 0.0002272153), (-0.9998914, 0.014735672, 0.0002272153), (-0.9998914, 0.014735672, 0.0002272153), (-0.9998914, 0.014735672, 0.0002272153), (-0.9998914, 0.014735672, 0.0002272153), (-0.9998914, 0.014735672, 0.0002272153), (-0.9998914, 0.014735672, 0.0002272153), (0.01263002, 0.8488635, 0.52846116), (-0.9998914, 0.014735672, 0.0002272153), (-0.9998914, 0.014735672, 0.0002272153), (-0.9998914, 0.014735672, 0.0002272153), (-0.9998914, 0.014735672, 0.0002272153), (0.01263002, 0.8488635, 0.52846116), (0.9998914, -0.014735672, -0.0002272153), (-0.9998914, 0.014735672, 0.0002272153), (-0.9998914, 0.014735672, 0.0002272153), (-0.9998914, 0.014735672, 0.0002272153), (-0.9998914, 0.014735672, 0.0002272153), (0.9998914, -0.014735672, -0.0002272153), (-0.9998914, 0.014735672, 0.0002272153), (-0.9998914, 0.014735672, 0.0002272153), (-0.9998914, 0.014735672, 0.0002272153), (-0.9998914, 0.014735672, 0.0002272153), (-0.9998914, 0.014735672, 0.0002272153), (-0.9998914, 0.014735672, 0.0002272153), (-0.9998914, 0.014735672, 0.0002272153), (-0.9998914, 0.014735672, 0.0002272153), (-0.9998914, 0.014735672, 0.0002272153), (-0.9998914, 0.014735672, 0.0002272153), (-0.9998914, 0.014735672, 0.0002272153), (-0.9998914, 0.014735672, 0.0002272153), (-0.9998914, 0.014735672, 0.0002272153), (-0.9998914, 0.014735672, 0.0002272153), (-0.9998914, 0.014735672, 0.0002272153), (-0.9998914, 0.014735672, 0.0002272153), (-0.9998914, 0.014735672, 0.0002272153), (-0.9998914, 0.014735672, 0.0002272153), (-0.9998914, 0.014735672, 0.0002272153), (-0.9998914, 0.014735672, 0.0002272153), (-0.9998914, 0.014735672, 0.0002272153), (-0.9998914, 0.014735672, 0.0002272153), (-0.9998914, 0.014735672, 0.0002272153), (-0.9998914, 0.014735672, 0.0002272153), (-0.9998914, 0.014735672, 0.0002272153), (-0.9998914, 0.014735672, 0.0002272153), (-0.9998914, 0.014735672, 0.0002272153), (-0.9998914, 0.014735672, 0.0002272153), (-0.9998914, 0.014735672, 0.0002272153), (-0.9998914, 0.014735672, 0.0002272153), (-0.9998914, 0.014735672, 0.0002272153), (0.9998914, -0.014735672, -0.0002272153), (-0.9998914, 0.014735672, 0.0002272153), (-0.9998914, 0.014735672, 0.0002272153), (-0.9998914, 0.014735672, 0.0002272153), (-0.9998914, 0.014735672, 0.0002272153), (-0.9998914, 0.014735672, 0.0002272153), (-0.9998914, 0.014735672, 0.0002272153), (0.9998914, -0.014735672, -0.0002272153), (-0.9998914, 0.014735672, 0.0002272153), (-0.9998914, 0.014735672, 0.0002272153), (-0.9998914, 0.014735672, 0.0002272153), (-0.9998914, 0.014735672, 0.0002272153), (-0.9998914, 0.014735672, 0.0002272153), (-0.9998914, 0.014735672, 0.0002272153), (-0.9998914, 0.014735672, 0.0002272153), (-0.9998914, 0.014735672, 0.0002272153), (-0.9998914, 0.014735672, 0.0002272153), (-0.9998914, 0.014735672, 0.0002272153), (-0.9998914, 0.014735672, 0.0002272153), (-0.9998914, 0.014735672, 0.0002272153), (0.9998914, -0.014735672, -0.0002272153), (-0.9998914, 0.014735672, 0.0002272153), (0.9998914, -0.014735672, -0.0002272153), (-0.9998914, 0.014735672, 0.0002272153), (-0.9998914, 0.014735672, 0.0002272153), (-0.9998914, 0.014735672, 0.0002272153), (-0.9998914, 0.014735672, 0.0002272153), (-0.9998914, 0.014735672, 0.0002272153), (-0.9998914, 0.014735672, 0.0002272153), (-0.9998914, 0.014735672, 0.0002272153), (-0.9998914, 0.014735672, 0.0002272153), (-0.9998914, 0.014735672, 0.0002272153), (-0.9998914, 0.014735672, 0.0002272153), (-0.9998914, 0.014735672, 0.0002272153), (-0.9998914, 0.014735672, 0.0002272153), (-0.9998914, 0.014735672, 0.0002272153), (-0.9998914, 0.014735672, 0.0002272153), (-0.9998914, 0.014735672, 0.0002272153), (-0.9998914, 0.014735672, 0.0002272153), (-0.9998914, 0.014735672, 0.0002272153), (-0.9998914, 0.014735672, 0.0002272153), (-0.9998914, 0.014735672, 0.0002272153), (-0.9998914, 0.014735672, 0.0002272153), (-0.9998914, 0.014735672, 0.0002272153), (-0.9998914, 0.014735672, 0.0002272153), (-0.9998914, 0.014735672, 0.0002272153), (-0.9998914, 0.014735672, 0.0002272153), (-0.9998914, 0.014735672, 0.0002272153), (-0.9998914, 0.014735672, 0.0002272153), (-0.9998914, 0.014735672, 0.0002272153), (-0.9998914, 0.014735672, 0.0002272153), (-0.9998914, 0.014735672, 0.0002272153), (-0.9998914, 0.014735672, 0.0002272153), (-0.9998914, 0.014735672, 0.0002272153), (-0.9998914, 0.014735672, 0.0002272153), (-0.9998914, 0.014735672, 0.0002272153), (-0.9998914, 0.014735672, 0.0002272153), (-0.9998914, 0.014735672, 0.0002272153), (-0.9998914, 0.014735672, 0.0002272153), (-0.9998914, 0.014735672, 0.0002272153), (-0.9998914, 0.014735672, 0.0002272153), (-0.9998914, 0.014735672, 0.0002272153), (-0.9998914, 0.014735672, 0.0002272153), (-0.9998914, 0.014735672, 0.0002272153), (-0.9998914, 0.014735672, 0.0002272153), (-0.9998914, 0.014735672, 0.0002272153), (-0.9998914, 0.014735672, 0.0002272153), (-0.9998914, 0.014735672, 0.0002272153), (-0.9998914, 0.014735672, 0.0002272153), (-0.9998914, 0.014735672, 0.0002272153), (-0.9998914, 0.014735672, 0.0002272153), (-0.9998914, 0.014735672, 0.0002272153), (-0.9998914, 0.014735672, 0.0002272153), (-0.9998914, 0.014735672, 0.0002272153), (-0.9998914, 0.014735672, 0.0002272153), (-0.9998914, 0.014735672, 0.0002272153), (-0.9998914, 0.014735672, 0.0002272153), (-0.9998914, 0.014735672, 0.0002272153), (0.9998914, -0.014735672, -0.0002272153), (-0.9998914, 0.014735672, 0.0002272153), (-0.9998914, 0.014735672, 0.0002272153), (-0.9998914, 0.014735672, 0.0002272153), (-0.9998914, 0.014735672, 0.0002272153), (-0.9998914, 0.014735672, 0.0002272153), (-0.9998914, 0.014735672, 0.0002272153), (-0.9998914, 0.014735672, 0.0002272153), (-0.9998914, 0.014735672, 0.0002272153), (-0.9998914, 0.014735672, 0.0002272153), (0.9998914, -0.014735672, -0.0002272153), (-0.9998914, 0.014735672, 0.0002272153), (-0.9998914, 0.014735672, 0.0002272153), (-0.9998914, 0.014735672, 0.0002272153), (-0.9998914, 0.014735672, 0.0002272153), (-0.9998914, 0.014735672, 0.0002272153), (-0.9998914, 0.014735672, 0.0002272153), (-0.9998914, 0.014735672, 0.0002272153), (-0.9998914, 0.014735672, 0.0002272153), (-0.9998914, 0.014735672, 0.0002272153), (-0.9998914, 0.014735672, 0.0002272153), (-0.9998914, 0.014735672, 0.0002272153), (-0.9998914, 0.014735672, 0.0002272153), (-0.9998914, 0.014735672, 0.0002272153), (-0.9998914, 0.014735672, 0.0002272153), (-0.9998914, 0.014735672, 0.0002272153), (-0.9998914, 0.014735672, 0.0002272153), (-0.9998914, 0.014735672, 0.0002272153), (-0.9998914, 0.014735672, 0.0002272153), (-0.9998914, 0.014735672, 0.0002272153), (-0.9998914, 0.014735672, 0.0002272153), (0.9998914, -0.014735672, -0.0002272153), (-0.9998914, 0.014735672, 0.0002272153), (-0.9998914, 0.014735672, 0.0002272153), (-0.9998914, 0.014735672, 0.0002272153), (-0.9998914, 0.014735672, 0.0002272153), (-0.9998914, 0.014735672, 0.0002272153), (-0.9998914, 0.014735672, 0.0002272153), (-0.9998914, 0.014735672, 0.0002272153), (-0.9998914, 0.014735672, 0.0002272153), (-0.9998914, 0.014735672, 0.0002272153), (-0.9998914, 0.014735672, 0.0002272153), (-0.9998914, 0.014735672, 0.0002272153), (-0.9998914, 0.014735672, 0.0002272153), (-0.9998914, 0.014735672, 0.0002272153), (-0.9998914, 0.014735672, 0.0002272153), (-0.9998914, 0.014735672, 0.0002272153), (-0.9998914, 0.014735672, 0.0002272153), (-0.9998914, 0.014735672, 0.0002272153), (-0.9998914, 0.014735672, 0.0002272153), (-0.9998914, 0.014735672, 0.0002272153), (-0.9998914, 0.014735672, 0.0002272153), (-0.9998914, 0.014735672, 0.0002272153), (-0.9998914, 0.014735672, 0.0002272153), (-0.9998914, 0.014735672, 0.0002272153), (-0.9998914, 0.014735672, 0.0002272153), (-0.9998914, 0.014735672, 0.0002272153), (-0.9998914, 0.014735672, 0.0002272153), (-0.9998914, 0.014735672, 0.0002272153), (-0.9998914, 0.014735672, 0.0002272153), (-0.9998914, 0.014735672, 0.0002272153), (-0.9998914, 0.014735672, 0.0002272153), (-0.9998914, 0.014735672, 0.0002272153), (-0.9998914, 0.014735672, 0.0002272153), (-0.9998914, 0.014735672, 0.0002272153), (-0.9998914, 0.014735672, 0.0002272153), (-0.9998914, 0.014735672, 0.0002272153), (-0.9998914, 0.014735672, 0.0002272153), (-0.9998914, 0.014735672, 0.0002272153), (-0.9998914, 0.014735672, 0.0002272153), (-0.9998914, 0.014735672, 0.0002272153), (-0.9998914, 0.014735672, 0.0002272153), (-0.9998914, 0.014735672, 0.0002272153), (-0.9998914, 0.014735672, 0.0002272153), (-0.9998914, 0.014735672, 0.0002272153), (-0.9998914, 0.014735672, 0.0002272153), (-0.9998914, 0.014735672, 0.0002272153), (-0.9998914, 0.014735672, 0.0002272153), (-0.9998914, 0.014735672, 0.0002272153), (-0.9998914, 0.014735672, 0.0002272153), (0.0147357965, 0.9998913, 0.0005572437), (-0.9998914, 0.014735672, 0.0002272153), (-0.9998914, 0.014735672, 0.0002272153), (-0.9998914, 0.014735672, 0.0002272153), (-0.9998914, 0.014735672, 0.0002272153), (-0.9998914, 0.014735672, 0.0002272153), (-0.9998914, 0.014735672, 0.0002272153), (-0.9998914, 0.014735672, 0.0002272153), (0.0147357965, 0.9998913, 0.0005572437), (-0.9998914, 0.014735672, 0.0002272153), (-0.9998914, 0.014735672, 0.0002272153), (-0.9998914, 0.014735672, 0.0002272153), (-0.9998914, 0.014735672, 0.0002272153), (-0.9998914, 0.014735672, 0.0002272153), (-0.9998914, 0.014735672, 0.0002272153), (-0.9998914, 0.014735672, 0.0002272153), (-0.9998914, 0.014735672, 0.0002272153), (-0.9998914, 0.014735672, 0.0002272153), (-0.9998914, 0.014735672, 0.0002272153), (-0.9998914, 0.014735672, 0.0002272153), (-0.9998914, 0.014735672, 0.0002272153), (-0.9998914, 0.014735672, 0.0002272153), (-0.9998914, 0.014735672, 0.0002272153), (-0.9998914, 0.014735672, 0.0002272153), (-0.9998914, 0.014735672, 0.0002272153), (-0.9998914, 0.014735672, 0.0002272153), (-0.9998914, 0.014735672, 0.0002272153), (-0.9998914, 0.014735672, 0.0002272153), (-0.9998914, 0.014735672, 0.0002272153), (-0.9998914, 0.014735672, 0.0002272153), (-0.9998914, 0.014735672, 0.0002272153), (-0.9998914, 0.014735672, 0.0002272153), (-0.9998914, 0.014735672, 0.0002272153), (-0.9998914, 0.014735672, 0.0002272153), (-0.9998914, 0.014735672, 0.0002272153), (-0.9998914, 0.014735672, 0.0002272153), (-0.9998914, 0.014735672, 0.0002272153), (-0.9998914, 0.014735672, 0.0002272153), (-0.9998914, 0.014735672, 0.0002272153), (-0.9998914, 0.014735672, 0.0002272153), (-0.9998914, 0.014735672, 0.0002272153), (-0.9998914, 0.014735672, 0.0002272153), (-0.9998914, 0.014735672, 0.0002272153), (-0.9998914, 0.014735672, 0.0002272153), (-0.9998914, 0.014735672, 0.0002272153), (-0.9998914, 0.014735672, 0.0002272153), (-0.9998914, 0.014735672, 0.0002272153), (-0.9998914, 0.014735672, 0.0002272153), (-0.9998914, 0.014735672, 0.0002272153), (-0.9998914, 0.014735672, 0.0002272153), (-0.9998914, 0.014735672, 0.0002272153), (-0.9998914, 0.014735672, 0.0002272153), (-0.9998914, 0.014735672, 0.0002272153), (-0.9998914, 0.014735672, 0.0002272153), (-0.9998914, 0.014735672, 0.0002272153), (0.9998914, -0.014735672, -0.0002272153), (0.9998914, -0.014735672, -0.0002272153), (0.9998914, -0.014735672, -0.0002272153), (0.9998914, -0.014735672, -0.0002272153), (0.9998914, -0.014735672, -0.0002272153), (0.9998914, -0.014735672, -0.0002272153), (0.9998914, -0.014735672, -0.0002272153), (0.9998914, -0.014735672, -0.0002272153), (0.9998914, -0.014735672, -0.0002272153), (0.9998914, -0.014735672, -0.0002272153), (0.9998914, -0.014735672, -0.0002272153), (0.9998914, -0.014735672, -0.0002272153), (0.9998914, -0.014735672, -0.0002272153), (0.9998914, -0.014735672, -0.0002272153), (0.9998914, -0.014735672, -0.0002272153), (0.9998914, -0.014735672, -0.0002272153), (0.9998914, -0.014735672, -0.0002272153), (0.9998914, -0.014735672, -0.0002272153), (0.9998914, -0.014735672, -0.0002272153), (0.9998914, -0.014735672, -0.0002272153), (0.9998914, -0.014735672, -0.0002272153), (0.9998914, -0.014735672, -0.0002272153), (0.9998914, -0.014735672, -0.0002272153), (0.9998914, -0.014735672, -0.0002272153), (0.9998914, -0.014735672, -0.0002272153), (0.9998914, -0.014735672, -0.0002272153), (0.9998914, -0.014735672, -0.0002272153), (0.9998914, -0.014735672, -0.0002272153), (0.9998914, -0.014735672, -0.0002272153), (0.9998914, -0.014735672, -0.0002272153), (0.9998914, -0.014735672, -0.0002272153), (0.9998914, -0.014735672, -0.0002272153), (0.9998914, -0.014735672, -0.0002272153), (0.9998914, -0.014735672, -0.0002272153), (0.9998914, -0.014735672, -0.0002272153), (0.9998914, -0.014735672, -0.0002272153), (0.9998914, -0.014735672, -0.0002272153), (0.9998914, -0.014735672, -0.0002272153), (0.9998914, -0.014735672, -0.0002272153), (0.9998914, -0.014735672, -0.0002272153), (0.9998914, -0.014735672, -0.0002272153), (0.9998914, -0.014735672, -0.0002272153), (0.9998914, -0.014735672, -0.0002272153), (0.9998914, -0.014735672, -0.0002272153), (0.9998914, -0.014735672, -0.0002272153), (0.9998914, -0.014735672, -0.0002272153), (0.9998914, -0.014735672, -0.0002272153), (0.9998914, -0.014735672, -0.0002272153), (0.9998914, -0.014735672, -0.0002272153), (0.9998914, -0.014735672, -0.0002272153), (0.9998914, -0.014735672, -0.0002272153), (0.9998914, -0.014735672, -0.0002272153), (0.9998914, -0.014735672, -0.0002272153), (0.9998914, -0.014735672, -0.0002272153), (0.9998914, -0.014735672, -0.0002272153), (0.9998914, -0.014735672, -0.0002272153), (0.9998914, -0.014735672, -0.0002272153), (0.9998914, -0.014735672, -0.0002272153), (0.9998914, -0.014735672, -0.0002272153), (0.9998914, -0.014735672, -0.0002272153), (0.9998914, -0.014735672, -0.0002272153), (0.9998914, -0.014735672, -0.0002272153), (0.9998914, -0.014735672, -0.0002272153), (0.9998914, -0.014735672, -0.0002272153), (0.9998914, -0.014735672, -0.0002272153), (0.9998914, -0.014735672, -0.0002272153), (0.9998914, -0.014735672, -0.0002272153), (0.9998914, -0.014735672, -0.0002272153), (0.9998914, -0.014735672, -0.0002272153), (0.9998914, -0.014735672, -0.0002272153), (0.9998914, -0.014735672, -0.0002272153), (0.9998914, -0.014735672, -0.0002272153), (0.9998914, -0.014735672, -0.0002272153), (0.9998914, -0.014735672, -0.0002272153), (0.9998914, -0.014735672, -0.0002272153), (0.9998914, -0.014735672, -0.0002272153), (0.9998914, -0.014735672, -0.0002272153), (0.9998914, -0.014735672, -0.0002272153), (0.9998914, -0.014735672, -0.0002272153), (0.9998914, -0.014735672, -0.0002272153), (0.9998914, -0.014735672, -0.0002272153), (0.9998914, -0.014735672, -0.0002272153), (0.9998914, -0.014735672, -0.0002272153), (0.9998914, -0.014735672, -0.0002272153), (0.9998914, -0.014735672, -0.0002272153), (0.9998914, -0.014735672, -0.0002272153), (0.9998914, -0.014735672, -0.0002272153), (0.9998914, -0.014735672, -0.0002272153), (0.9998914, -0.014735672, -0.0002272153), (0.9998914, -0.014735672, -0.0002272153), (0.014503551, 0.98664266, -0.16225323), (0.9998914, -0.014735672, -0.0002272153), (0.9998914, -0.014735672, -0.0002272153), (0.9998914, -0.014735672, -0.0002272153), (0.9998914, -0.014735672, -0.0002272153), (0.9998914, -0.014735672, -0.0002272153), (0.9998914, -0.014735672, -0.0002272153), (0.9998914, -0.014735672, -0.0002272153), (0.014503551, 0.98664266, -0.16225323), (0.9998914, -0.014735672, -0.0002272153), (0.9998914, -0.014735672, -0.0002272153), (0.9998914, -0.014735672, -0.0002272153), (0.9998914, -0.014735672, -0.0002272153), (0.9998914, -0.014735672, -0.0002272153), (0.9998914, -0.014735672, -0.0002272153), (0.9998914, -0.014735672, -0.0002272153), (0.9998914, -0.014735672, -0.0002272153), (0.9998914, -0.014735672, -0.0002272153), (0.9998914, -0.014735672, -0.0002272153), (0.9998914, -0.014735672, -0.0002272153), (0.9998914, -0.014735672, -0.0002272153), (0.9998914, -0.014735672, -0.0002272153), (0.9998914, -0.014735672, -0.0002272153), (0.9998914, -0.014735672, -0.0002272153), (0.9998914, -0.014735672, -0.0002272153), (0.9998914, -0.014735672, -0.0002272153), (0.9998914, -0.014735672, -0.0002272153), (0.9998914, -0.014735672, -0.0002272153), (0.9998914, -0.014735672, -0.0002272153), (0.9998914, -0.014735672, -0.0002272153), (0.9998914, -0.014735672, -0.0002272153), (0.9998914, -0.014735672, -0.0002272153), (0.9998914, -0.014735672, -0.0002272153), (0.9998914, -0.014735672, -0.0002272153), (0.9998914, -0.014735672, -0.0002272153), (0.9998914, -0.014735672, -0.0002272153), (0.9998914, -0.014735672, -0.0002272153), (0.9998914, -0.014735672, -0.0002272153), (0.9998914, -0.014735672, -0.0002272153), (0.9998914, -0.014735672, -0.0002272153), (0.9998914, -0.014735672, -0.0002272153), (0.9998914, -0.014735672, -0.0002272153), (0.9998914, -0.014735672, -0.0002272153), (0.9998914, -0.014735672, -0.0002272153), (0.9998914, -0.014735672, -0.0002272153), (0.9998914, -0.014735672, -0.0002272153), (0.9998914, -0.014735672, -0.0002272153), (0.9998914, -0.014735672, -0.0002272153), (0.9998914, -0.014735672, -0.0002272153), (0.9998914, -0.014735672, -0.0002272153), (0.9998914, -0.014735672, -0.0002272153), (0.9998914, -0.014735672, -0.0002272153), (0.9998914, -0.014735672, -0.0002272153), (0.9998914, -0.014735672, -0.0002272153), (0.9998914, -0.014735672, -0.0002272153), (0.9998914, -0.014735672, -0.0002272153), (0.9998914, -0.014735672, -0.0002272153), (0.9998914, -0.014735672, -0.0002272153), (0.9998914, -0.014735672, -0.0002272153), (0.9998914, -0.014735672, -0.0002272153), (0.9998914, -0.014735672, -0.0002272153), (0.9998914, -0.014735672, -0.0002272153), (0.9998914, -0.014735672, -0.0002272153), (0.9998914, -0.014735672, -0.0002272153), (0.9998914, -0.014735672, -0.0002272153), (0.9998914, -0.014735672, -0.0002272153), (0.9998914, -0.014735672, -0.0002272153), (0.9998914, -0.014735672, -0.0002272153), (0.9998914, -0.014735672, -0.0002272153), (0.9998914, -0.014735672, -0.0002272153), (0.9998914, -0.014735672, -0.0002272153), (0.9998914, -0.014735672, -0.0002272153), (0.9998914, -0.014735672, -0.0002272153), (0.9998914, -0.014735672, -0.0002272153), (0.9998914, -0.014735672, -0.0002272153), (0.9998914, -0.014735672, -0.0002272153), (0.9998914, -0.014735672, -0.0002272153), (0.9998914, -0.014735672, -0.0002272153), (0.9998914, -0.014735672, -0.0002272153), (0.9998914, -0.014735672, -0.0002272153), (0.9998914, -0.014735672, -0.0002272153), (0.9998914, -0.014735672, -0.0002272153), (0.9998914, -0.014735672, -0.0002272153), (0.9998914, -0.014735672, -0.0002272153), (0.9998914, -0.014735672, -0.0002272153), (0.9998914, -0.014735672, -0.0002272153), (0.9998914, -0.014735672, -0.0002272153), (0.9998914, -0.014735672, -0.0002272153), (0.9998914, -0.014735672, -0.0002272153), (0.9998914, -0.014735672, -0.0002272153), (0.9998914, -0.014735672, -0.0002272153), (0.9998914, -0.014735672, -0.0002272153), (0.9998914, -0.014735672, -0.0002272153), (0.9998914, -0.014735672, -0.0002272153), (0.9998914, -0.014735672, -0.0002272153), (0.9998914, -0.014735672, -0.0002272153), (0.9998914, -0.014735672, -0.0002272153), (0.9998914, -0.014735672, -0.0002272153), (0.9998914, -0.014735672, -0.0002272153), (0.9998914, -0.014735672, -0.0002272153), (0.9998914, -0.014735672, -0.0002272153), (0.9998914, -0.014735672, -0.0002272153), (0.9998914, -0.014735672, -0.0002272153), (0.9998914, -0.014735672, -0.0002272153), (0.9998914, -0.014735672, -0.0002272153), (0.9998914, -0.014735672, -0.0002272153), (0.9998914, -0.014735672, -0.0002272153), (0.9998914, -0.014735672, -0.0002272153), (0.9998914, -0.014735672, -0.0002272153), (0.9998914, -0.014735672, -0.0002272153), (0.9998914, -0.014735672, -0.0002272153), (0.9998914, -0.014735672, -0.0002272153), (0.9998914, -0.014735672, -0.0002272153), (0.9998914, -0.014735672, -0.0002272153), (0.9998914, -0.014735672, -0.0002272153), (0.9998914, -0.014735672, -0.0002272153), (0.9998914, -0.014735672, -0.0002272153), (0.9998914, -0.014735672, -0.0002272153), (0.9998914, -0.014735672, -0.0002272153), (0.9998914, -0.014735672, -0.0002272153), (0.9998914, -0.014735672, -0.0002272153), (0.9998914, -0.014735672, -0.0002272153), (0.9998914, -0.014735672, -0.0002272153), (0.9998914, -0.014735672, -0.0002272153), (0.9998914, -0.014735672, -0.0002272153), (0.9998914, -0.014735672, -0.0002272153), (0.9998914, -0.014735672, -0.0002272153), (0.9998914, -0.014735672, -0.0002272153), (0.9998914, -0.014735672, -0.0002272153), (0.9998914, -0.014735672, -0.0002272153), (0.9998914, -0.014735672, -0.0002272153), (0.9998914, -0.014735672, -0.0002272153), (0.9998914, -0.014735672, -0.0002272153), (0.9998914, -0.014735672, -0.0002272153), (0.9998914, -0.014735672, -0.0002272153), (0.9998914, -0.014735672, -0.0002272153), (0.9998914, -0.014735672, -0.0002272153), (0.9998914, -0.014735672, -0.0002272153), (0.9998914, -0.014735672, -0.0002272153), (0.9998914, -0.014735672, -0.0002272153), (0.9998914, -0.014735672, -0.0002272153), (0.9998914, -0.014735672, -0.0002272153), (-0.9998914, 0.014735672, 0.0002272153), (-0.9998914, 0.014735672, 0.0002272153), (0.9998914, -0.014735672, -0.0002272153), (-0.9998914, 0.014735672, 0.0002272153), (0.9998914, -0.014735672, -0.0002272153), (0.9998914, -0.014735672, -0.0002272153), (-0.9998914, 0.014735672, 0.0002272153), (-0.9998914, 0.014735672, 0.0002272153), (0.9998914, -0.014735672, -0.0002272153), (-0.9998914, 0.014735672, 0.0002272153), (0.9998914, -0.014735672, -0.0002272153), (0.9998914, -0.014735672, -0.0002272153), (-0.9998914, 0.014735672, 0.0002272153), (-0.9998914, 0.014735672, 0.0002272153), (0.9998914, -0.014735672, -0.0002272153), (-0.9998914, 0.014735672, 0.0002272153), (0.9998914, -0.014735672, -0.0002272153), (0.9998914, -0.014735672, -0.0002272153), (-0.9998914, 0.014735672, 0.0002272153), (-0.9998914, 0.014735672, 0.0002272153), (0.9998914, -0.014735672, -0.0002272153), (-0.9998914, 0.014735672, 0.0002272153), (0.9998914, -0.014735672, -0.0002272153), (-0.9998914, 0.014735672, 0.0002272153), (-0.9998914, 0.014735672, 0.0002272153), (0.9998914, -0.014735672, -0.0002272153), (-0.9998914, 0.014735672, 0.0002272153), (0.9998914, -0.014735672, -0.0002272153), (0.9998914, -0.014735672, -0.0002272153), (-0.9998914, 0.014735672, 0.0002272153), (-0.9998914, 0.014735672, 0.0002272153), (0.9998914, -0.014735672, -0.0002272153), (-0.9998914, 0.014735672, 0.0002272153), (0.9998914, -0.014735672, -0.0002272153), (0.9998914, -0.014735672, -0.0002272153), (-0.9998914, 0.014735672, 0.0002272153), (-0.9998914, 0.014735672, 0.0002272153), (0.9998914, -0.014735672, -0.0002272153), (-0.9998914, 0.014735672, 0.0002272153), (0.9998914, -0.014735672, -0.0002272153), (0.9998914, -0.014735672, -0.0002272153), (-0.9998914, 0.014735672, 0.0002272153), (-0.9998914, 0.014735672, 0.0002272153), (0.9998914, -0.014735672, -0.0002272153), (-0.9998914, 0.014735672, 0.0002272153), (0.9998914, -0.014735672, -0.0002272153), (0.9998914, -0.014735672, -0.0002272153), (-0.9998914, 0.014735672, 0.0002272153), (-0.9998914, 0.014735672, 0.0002272153), (0.9998914, -0.014735672, -0.0002272153), (-0.9998914, 0.014735672, 0.0002272153), (0.9998914, -0.014735672, -0.0002272153), (0.9998914, -0.014735672, -0.0002272153), (-0.9998914, 0.014735672, 0.0002272153), (-0.9998914, 0.014735672, 0.0002272153), (0.9998914, -0.014735672, -0.0002272153), (-0.9998914, 0.014735672, 0.0002272153), (0.9998914, -0.014735672, -0.0002272153), (0.9998914, -0.014735672, -0.0002272153), (-0.9998914, 0.014735672, 0.0002272153), (-0.9998914, 0.014735672, 0.0002272153), (0.9998914, -0.014735672, -0.0002272153), (-0.9998914, 0.014735672, 0.0002272153), (0.9998914, -0.014735672, -0.0002272153), (0.9998914, -0.014735672, -0.0002272153), (-0.9998914, 0.014735672, 0.0002272153), (-0.9998914, 0.014735672, 0.0002272153), (0.9998914, -0.014735672, -0.0002272153), (-0.9998914, 0.014735672, 0.0002272153), (0.9998914, -0.014735672, -0.0002272153), (0.9998914, -0.014735672, -0.0002272153), (-0.9998914, 0.014735672, 0.0002272153), (-0.9998914, 0.014735672, 0.0002272153), (0.9998914, -0.014735672, -0.0002272153), (-0.9998914, 0.014735672, 0.0002272153), (0.9998914, -0.014735672, -0.0002272153), (0.9998914, -0.014735672, -0.0002272153), (-0.9998914, 0.014735672, 0.0002272153), (-0.9998914, 0.014735672, 0.0002272153), (0.9998914, -0.014735672, -0.0002272153), (-0.9998914, 0.014735672, 0.0002272153), (0.9998914, -0.014735672, -0.0002272153), (0.9998914, -0.014735672, -0.0002272153), (-0.9998914, 0.014735672, 0.0002272153), (-0.9998914, 0.014735672, 0.0002272153), (0.9998914, -0.014735672, -0.0002272153), (-0.9998914, 0.014735672, 0.0002272153), (0.9998914, -0.014735672, -0.0002272153), (0.9998914, -0.014735672, -0.0002272153), (-0.9998914, 0.014735672, 0.0002272153), (-0.9998914, 0.014735672, 0.0002272153), (0.9998914, -0.014735672, -0.0002272153), (-0.9998914, 0.014735672, 0.0002272153), (0.9998914, -0.014735672, -0.0002272153), (0.9998914, -0.014735672, -0.0002272153), (-0.9998914, 0.014735672, 0.0002272153), (-0.9998914, 0.014735672, 0.0002272153), (0.9998914, -0.014735672, -0.0002272153), (-0.9998914, 0.014735672, 0.0002272153), (0.9998914, -0.014735672, -0.0002272153), (0.9998914, -0.014735672, -0.0002272153), (-0.9998914, 0.014735672, 0.0002272153), (-0.9998914, 0.014735672, 0.0002272153), (0.9998914, -0.014735672, -0.0002272153), (-0.9998914, 0.014735672, 0.0002272153), (0.9998914, -0.014735672, -0.0002272153), (0.9998914, -0.014735672, -0.0002272153), (-0.9998914, 0.014735672, 0.0002272153), (-0.9998914, 0.014735672, 0.0002272153), (0.9998914, -0.014735672, -0.0002272153), (-0.9998914, 0.014735672, 0.0002272153), (0.9998914, -0.014735672, -0.0002272153), (0.9998914, -0.014735672, -0.0002272153), (-0.9998914, 0.014735672, 0.0002272153), (-0.9998914, 0.014735672, 0.0002272153), (0.9998914, -0.014735672, -0.0002272153), (-0.9998914, 0.014735672, 0.0002272153), (0.9998914, -0.014735672, -0.0002272153), (0.9998914, -0.014735672, -0.0002272153), (0.9998914, -0.014735672, -0.0002272153), (-0.9998914, 0.014735672, 0.0002272153), (-0.9998914, 0.014735672, 0.0002272153), (0.9998914, -0.014735672, -0.0002272153), (-0.9998914, 0.014735672, 0.0002272153), (0.9998914, -0.014735672, -0.0002272153), (0.9998914, -0.014735672, -0.0002272153), (-0.9998914, 0.014735672, 0.0002272153), (-0.9998914, 0.014735672, 0.0002272153), (0.9998914, -0.014735672, -0.0002272153), (-0.9998914, 0.014735672, 0.0002272153), (0.9998914, -0.014735672, -0.0002272153), (0.9998914, -0.014735672, -0.0002272153), (-0.9998914, 0.014735672, 0.0002272153), (0.9998914, -0.014735672, -0.0002272153), (0.9998914, -0.014735672, -0.0002272153), (0.9998914, -0.014735672, -0.0002272153), (0.9998914, -0.014735672, -0.0002272153), (0.9998914, -0.014735672, -0.0002272153), (0.9998914, -0.014735672, -0.0002272153), (-0.9998914, 0.014735672, 0.0002272153), (0.9998914, -0.014735672, -0.0002272153), (-0.9998914, 0.014735672, 0.0002272153), (0.9998914, -0.014735672, -0.0002272153), (0.9998914, -0.014735672, -0.0002272153), (-0.9998914, 0.014735672, 0.0002272153), (-0.9998914, 0.014735672, 0.0002272153), (0.9998914, -0.014735672, -0.0002272153), (-0.9998914, 0.014735672, 0.0002272153), (0.9998914, -0.014735672, -0.0002272153), (0.9998914, -0.014735672, -0.0002272153), (-0.9998914, 0.014735672, 0.0002272153), (-0.9998914, 0.014735672, 0.0002272153), (0.9998914, -0.014735672, -0.0002272153), (-0.9998914, 0.014735672, 0.0002272153), (0.9998914, -0.014735672, -0.0002272153), (0.9998914, -0.014735672, -0.0002272153), (-0.9998914, 0.014735672, 0.0002272153), (-0.9998914, 0.014735672, 0.0002272153), (0.9998914, -0.014735672, -0.0002272153), (-0.9998914, 0.014735672, 0.0002272153), (0.9998914, -0.014735672, -0.0002272153), (0.9998914, -0.014735672, -0.0002272153), (-0.9998914, 0.014735672, 0.0002272153), (-0.9998914, 0.014735672, 0.0002272153), (0.9998914, -0.014735672, -0.0002272153), (-0.9998914, 0.014735672, 0.0002272153), (0.9998914, -0.014735672, -0.0002272153), (0.9998914, -0.014735672, -0.0002272153), (-0.9998914, 0.014735672, 0.0002272153), (-0.9998914, 0.014735672, 0.0002272153), (0.9998914, -0.014735672, -0.0002272153), (-0.9998914, 0.014735672, 0.0002272153), (0.9998914, -0.014735672, -0.0002272153), (0.9998914, -0.014735672, -0.0002272153), (-0.9998914, 0.014735672, 0.0002272153), (-0.9998914, 0.014735672, 0.0002272153), (0.9998914, -0.014735672, -0.0002272153), (-0.9998914, 0.014735672, 0.0002272153), (0.9998914, -0.014735672, -0.0002272153), (0.9998914, -0.014735672, -0.0002272153), (-0.9998914, 0.014735672, 0.0002272153), (0.9998914, -0.014735672, -0.0002272153), (0.9998914, -0.014735672, -0.0002272153), (0.9998914, -0.014735672, -0.0002272153), (0.9998914, -0.014735672, -0.0002272153), (0.9998914, -0.014735672, -0.0002272153), (0.9998914, -0.014735672, -0.0002272153), (-0.9998914, 0.014735672, 0.0002272153), (0.9998914, -0.014735672, -0.0002272153), (-0.9998914, 0.014735672, 0.0002272153), (0.9998914, -0.014735672, -0.0002272153), (0.9998914, -0.014735672, -0.0002272153), (0.9998914, -0.014735672, -0.0002272153), (-0.9998914, 0.014735672, 0.0002272153), (-0.9998914, 0.014735672, 0.0002272153), (-0.9998914, 0.014735672, 0.0002272153), (0.9998914, -0.014735672, -0.0002272153), (0.9998914, -0.014735672, -0.0002272153), (-0.9998914, 0.014735672, 0.0002272153), (-0.9998914, 0.014735672, 0.0002272153), (0.9998914, -0.014735672, -0.0002272153), (-0.9998914, 0.014735672, 0.0002272153), (0.9998914, -0.014735672, -0.0002272153), (0.9998914, -0.014735672, -0.0002272153), (-0.9998914, 0.014735672, 0.0002272153), (-0.9998914, 0.014735672, 0.0002272153), (0.9998914, -0.014735672, -0.0002272153), (-0.9998914, 0.014735672, 0.0002272153), (0.9998914, -0.014735672, -0.0002272153), (-0.9998914, 0.014735672, 0.0002272153), (-0.9998914, 0.014735672, 0.0002272153), (0.9998914, -0.014735672, -0.0002272153), (-0.9998914, 0.014735672, 0.0002272153), (0.9998914, -0.014735672, -0.0002272153), (0.9998914, -0.014735672, -0.0002272153), (0.9998914, -0.014735672, -0.0002272153), (-0.9998914, 0.014735672, 0.0002272153), (-0.9998914, 0.014735672, 0.0002272153), (0.9998914, -0.014735672, -0.0002272153), (-0.9998914, 0.014735672, 0.0002272153), (0.9998914, -0.014735672, -0.0002272153), (-0.9998914, 0.014735672, 0.0002272153), (0.9998914, -0.014735672, -0.0002272153), (0.9998914, -0.014735672, -0.0002272153), (0.9998914, -0.014735672, -0.0002272153), (-0.9998914, 0.014735672, 0.0002272153), (-0.9998914, 0.014735672, 0.0002272153), (0.9998914, -0.014735672, -0.0002272153), (-0.9998914, 0.014735672, 0.0002272153), (-0.9998914, 0.014735672, 0.0002272153), (-0.9998914, 0.014735672, 0.0002272153), (-0.9998914, 0.014735672, 0.0002272153), (0.9998914, -0.014735672, -0.0002272153), (-0.9998914, 0.014735672, 0.0002272153), (0.9998914, -0.014735672, -0.0002272153), (0.9998914, -0.014735672, -0.0002272153), (-0.9998914, 0.014735672, 0.0002272153), (-0.9998914, 0.014735672, 0.0002272153), (0.9998914, -0.014735672, -0.0002272153), (-0.9998914, 0.014735672, 0.0002272153), (0.9998914, -0.014735672, -0.0002272153), (0.9998914, -0.014735672, -0.0002272153), (0.9998914, -0.014735672, -0.0002272153), (-0.9998914, 0.014735672, 0.0002272153), (-0.9998914, 0.014735672, 0.0002272153), (0.9998914, -0.014735672, -0.0002272153), (-0.9998914, 0.014735672, 0.0002272153), (0.9998914, -0.014735672, -0.0002272153), (0.9998914, -0.014735672, -0.0002272153), (-0.9998914, 0.014735672, 0.0002272153), (-0.9998914, 0.014735672, 0.0002272153), (0.9998914, -0.014735672, -0.0002272153), (-0.9998914, 0.014735672, 0.0002272153), (0.9998914, -0.014735672, -0.0002272153), (-0.9998914, 0.014735672, 0.0002272153), (-0.9998914, 0.014735672, 0.0002272153), (0.9998914, -0.014735672, -0.0002272153), (-0.9998914, 0.014735672, 0.0002272153), (0.9998914, -0.014735672, -0.0002272153), (0.9998914, -0.014735672, -0.0002272153), (-0.9998914, 0.014735672, 0.0002272153), (-0.9998914, 0.014735672, 0.0002272153), (0.9998914, -0.014735672, -0.0002272153), (-0.9998914, 0.014735672, 0.0002272153), (0.9998914, -0.014735672, -0.0002272153), (0.9998914, -0.014735672, -0.0002272153), (0.9998914, -0.014735672, -0.0002272153), (-0.9998914, 0.014735672, 0.0002272153), (-0.9998914, 0.014735672, 0.0002272153), (0.9998914, -0.014735672, -0.0002272153), (-0.9998914, 0.014735672, 0.0002272153), (0.9998914, -0.014735672, -0.0002272153), (0.9998914, -0.014735672, -0.0002272153), (-0.9998914, 0.014735672, 0.0002272153), (-0.9998914, 0.014735672, 0.0002272153), (0.9998914, -0.014735672, -0.0002272153), (-0.9998914, 0.014735672, 0.0002272153), (0.9998914, -0.014735672, -0.0002272153), (0.9998914, -0.014735672, -0.0002272153), (-0.9998914, 0.014735672, 0.0002272153), (-0.9998914, 0.014735672, 0.0002272153), (0.9998914, -0.014735672, -0.0002272153), (-0.9998914, 0.014735672, 0.0002272153), (0.9998914, -0.014735672, -0.0002272153), (0.9998914, -0.014735672, -0.0002272153), (-0.9998914, 0.014735672, 0.0002272153), (0.9998914, -0.014735672, -0.0002272153), (0.9998914, -0.014735672, -0.0002272153), (0.9998914, -0.014735672, -0.0002272153), (0.9998914, -0.014735672, -0.0002272153), (0.9998914, -0.014735672, -0.0002272153), (0.01263002, 0.8488635, 0.52846116), (0.9998914, -0.014735672, -0.0002272153), (0.9998914, -0.014735672, -0.0002272153), (0.9998914, -0.014735672, -0.0002272153), (0.9998914, -0.014735672, -0.0002272153), (0.01263002, 0.8488635, 0.52846116), (-0.9998914, 0.014735672, 0.0002272153), (0.9998914, -0.014735672, -0.0002272153), (0.01263002, 0.8488635, 0.52846116), (0.9998914, -0.014735672, -0.0002272153), (0.9998914, -0.014735672, -0.0002272153), (-0.9998914, 0.014735672, 0.0002272153), (0.014574852, 0.98646015, 0.16335283), (0.9998914, -0.014735672, -0.0002272153), (-0.9998914, 0.014735672, 0.0002272153), (0.9998914, -0.014735672, -0.0002272153), (0.9998914, -0.014735672, -0.0002272153), (0.014574852, 0.98646015, 0.16335283), (0.9998914, -0.014735672, -0.0002272153), (0.9998914, -0.014735672, -0.0002272153), (0.014574852, 0.98646015, 0.16335283), (0.9998914, -0.014735672, -0.0002272153), (0.9998914, -0.014735672, -0.0002272153), (0.9998914, -0.014735672, -0.0002272153), (0.9998914, -0.014735672, -0.0002272153), (0.014503551, 0.98664266, -0.16225323), (0.9998914, -0.014735672, -0.0002272153), (0.014503551, 0.98664266, -0.16225323), (0.9998914, -0.014735672, -0.0002272153), (0.9998914, -0.014735672, -0.0002272153), (0.9998914, -0.014735672, -0.0002272153), (0.9998914, -0.014735672, -0.0002272153), (0.9998914, -0.014735672, -0.0002272153), (0.9998914, -0.014735672, -0.0002272153), (0.014503551, 0.98664266, -0.16225323), (0.9998914, -0.014735672, -0.0002272153), (0.9998914, -0.014735672, -0.0002272153), (0.9998914, -0.014735672, -0.0002272153), (0.9998914, -0.014735672, -0.0002272153), (0.9998914, -0.014735672, -0.0002272153), (0.9998914, -0.014735672, -0.0002272153), (0.9998914, -0.014735672, -0.0002272153), (-0.9998914, 0.014735672, 0.0002272153), (0.9998914, -0.014735672, -0.0002272153), (0.9998914, -0.014735672, -0.0002272153), (0.9998914, -0.014735672, -0.0002272153), (0.9998914, -0.014735672, -0.0002272153), (-0.9998914, 0.014735672, 0.0002272153), (-0.9998914, 0.014735672, 0.0002272153), (0.9998914, -0.014735672, -0.0002272153), (-0.9998914, 0.014735672, 0.0002272153), (0.9998914, -0.014735672, -0.0002272153), (0.9998914, -0.014735672, -0.0002272153), (-0.9998914, 0.014735672, 0.0002272153), (-0.9998914, 0.014735672, 0.0002272153), (0.9998914, -0.014735672, -0.0002272153), (-0.9998914, 0.014735672, 0.0002272153), (0.9998914, -0.014735672, -0.0002272153), (0.9998914, -0.014735672, -0.0002272153), (-0.9998914, 0.014735672, 0.0002272153), (-0.9998914, 0.014735672, 0.0002272153), (0.9998914, -0.014735672, -0.0002272153), (-0.9998914, 0.014735672, 0.0002272153), (0.9998914, -0.014735672, -0.0002272153), (0.9998914, -0.014735672, -0.0002272153), (-0.9998914, 0.014735672, 0.0002272153), (-0.9998914, 0.014735672, 0.0002272153), (0.9998914, -0.014735672, -0.0002272153), (-0.9998914, 0.014735672, 0.0002272153), (0.9998914, -0.014735672, -0.0002272153), (0.9998914, -0.014735672, -0.0002272153), (-0.9998914, 0.014735672, 0.0002272153), (-0.9998914, 0.014735672, 0.0002272153), (0.9998914, -0.014735672, -0.0002272153), (-0.9998914, 0.014735672, 0.0002272153), (0.9998914, -0.014735672, -0.0002272153), (0.9998914, -0.014735672, -0.0002272153), (-0.9998914, 0.014735672, 0.0002272153), (-0.9998914, 0.014735672, 0.0002272153), (0.9998914, -0.014735672, -0.0002272153), (-0.9998914, 0.014735672, 0.0002272153), (0.9998914, -0.014735672, -0.0002272153), (0.9998914, -0.014735672, -0.0002272153), (-0.9998914, 0.014735672, 0.0002272153), (-0.9998914, 0.014735672, 0.0002272153), (0.9998914, -0.014735672, -0.0002272153), (-0.9998914, 0.014735672, 0.0002272153), (0.9998914, -0.014735672, -0.0002272153), (0.9998914, -0.014735672, -0.0002272153), (-0.9998914, 0.014735672, 0.0002272153), (-0.9998914, 0.014735672, 0.0002272153), (0.9998914, -0.014735672, -0.0002272153), (-0.9998914, 0.014735672, 0.0002272153), (0.9998914, -0.014735672, -0.0002272153), (0.9998914, -0.014735672, -0.0002272153), (0.9998914, -0.014735672, -0.0002272153), (-0.9998914, 0.014735672, 0.0002272153), (-0.9998914, 0.014735672, 0.0002272153), (0.9998914, -0.014735672, -0.0002272153), (-0.9998914, 0.014735672, 0.0002272153), (0.9998914, -0.014735672, -0.0002272153), (0.9998914, -0.014735672, -0.0002272153), (-0.9998914, 0.014735672, 0.0002272153), (-0.9998914, 0.014735672, 0.0002272153), (0.9998914, -0.014735672, -0.0002272153), (-0.9998914, 0.014735672, 0.0002272153), (0.9998914, -0.014735672, -0.0002272153), (0.9998914, -0.014735672, -0.0002272153), (-0.9998914, 0.014735672, 0.0002272153), (-0.9998914, 0.014735672, 0.0002272153), (0.9998914, -0.014735672, -0.0002272153), (-0.9998914, 0.014735672, 0.0002272153), (0.9998914, -0.014735672, -0.0002272153), (0.9998914, -0.014735672, -0.0002272153), (-0.9998914, 0.014735672, 0.0002272153), (-0.9998914, 0.014735672, 0.0002272153), (0.9998914, -0.014735672, -0.0002272153), (-0.9998914, 0.014735672, 0.0002272153), (0.9998914, -0.014735672, -0.0002272153), (0.9998914, -0.014735672, -0.0002272153), (-0.9998914, 0.014735672, 0.0002272153), (0.9998914, -0.014735672, -0.0002272153), (0.9998914, -0.014735672, -0.0002272153), (0.9998914, -0.014735672, -0.0002272153), (0.9998914, -0.014735672, -0.0002272153), (0.9998914, -0.014735672, -0.0002272153), (0.9998914, -0.014735672, -0.0002272153), (-0.9998914, 0.014735672, 0.0002272153), (0.9998914, -0.014735672, -0.0002272153), (-0.9998914, 0.014735672, 0.0002272153), (0.9998914, -0.014735672, -0.0002272153), (0.9998914, -0.014735672, -0.0002272153), (-0.9998914, 0.014735672, 0.0002272153), (-0.9998914, 0.014735672, 0.0002272153), (0.9998914, -0.014735672, -0.0002272153), (-0.9998914, 0.014735672, 0.0002272153), (0.9998914, -0.014735672, -0.0002272153), (0.9998914, -0.014735672, -0.0002272153), (-0.9998914, 0.014735672, 0.0002272153), (-0.9998914, 0.014735672, 0.0002272153), (0.9998914, -0.014735672, -0.0002272153), (-0.9998914, 0.014735672, 0.0002272153), (0.9998914, -0.014735672, -0.0002272153), (0.9998914, -0.014735672, -0.0002272153), (-0.9998914, 0.014735672, 0.0002272153), (-0.9998914, 0.014735672, 0.0002272153), (0.9998914, -0.014735672, -0.0002272153), (-0.9998914, 0.014735672, 0.0002272153), (0.9998914, -0.014735672, -0.0002272153), (0.9998914, -0.014735672, -0.0002272153), (-0.9998914, 0.014735672, 0.0002272153), (-0.9998914, 0.014735672, 0.0002272153), (0.9998914, -0.014735672, -0.0002272153), (-0.9998914, 0.014735672, 0.0002272153), (0.9998914, -0.014735672, -0.0002272153), (0.9998914, -0.014735672, -0.0002272153), (-0.9998914, 0.014735672, 0.0002272153), (-0.9998914, 0.014735672, 0.0002272153), (0.9998914, -0.014735672, -0.0002272153), (-0.9998914, 0.014735672, 0.0002272153), (0.9998914, -0.014735672, -0.0002272153), (0.9998914, -0.014735672, -0.0002272153), (-0.9998914, 0.014735672, 0.0002272153), (-0.9998914, 0.014735672, 0.0002272153), (0.9998914, -0.014735672, -0.0002272153), (-0.9998914, 0.014735672, 0.0002272153), (0.9998914, -0.014735672, -0.0002272153), (-0.9998914, 0.014735672, 0.0002272153), (-0.9998914, 0.014735672, 0.0002272153), (0.9998914, -0.014735672, -0.0002272153), (-0.9998914, 0.014735672, 0.0002272153), (0.9998914, -0.014735672, -0.0002272153), (0.9998914, -0.014735672, -0.0002272153), (0.9998914, -0.014735672, -0.0002272153), (-0.9998914, 0.014735672, 0.0002272153), (-0.9998914, 0.014735672, 0.0002272153), (-0.9998914, 0.014735672, 0.0002272153), (0.9998914, -0.014735672, -0.0002272153), (0.9998914, -0.014735672, -0.0002272153), (0.9998914, -0.014735672, -0.0002272153), (0.9998914, -0.014735672, -0.0002272153), (-0.9998914, 0.014735672, 0.0002272153), (0.9998914, -0.014735672, -0.0002272153), (-0.9998914, 0.014735672, 0.0002272153), (-0.9998914, 0.014735672, 0.0002272153), (0.9998914, -0.014735672, -0.0002272153), (-0.9998914, 0.014735672, 0.0002272153), (0.9998914, -0.014735672, -0.0002272153), (0.9998914, -0.014735672, -0.0002272153), (-0.9998914, 0.014735672, 0.0002272153), (0.0147357965, 0.9998913, 0.0005572437), (0.9998914, -0.014735672, -0.0002272153), (0.0147357965, 0.9998913, 0.0005572437), (0.9998914, -0.014735672, -0.0002272153), (0.9998914, -0.014735672, -0.0002272153), (0.0147357965, 0.9998913, 0.0005572437), (-0.9998914, 0.014735672, 0.0002272153), (-0.9998914, 0.014735672, 0.0002272153), (-0.9998914, 0.014735672, 0.0002272153), (0.9998914, -0.014735672, -0.0002272153), (-0.9998914, 0.014735672, 0.0002272153), (0.9998914, -0.014735672, -0.0002272153), (0.9998914, -0.014735672, -0.0002272153), (0.00021897924, -0.0005605314, 0.9999998), (0.00021897924, -0.0005605314, 0.9999998), (-0.00021897924, 0.0005605314, -0.9999998), (0.00021897924, -0.0005605314, 0.9999998), (-0.00021897924, 0.0005605314, -0.9999998), (-0.00021897924, 0.0005605314, -0.9999998), (-0.00021897924, 0.0005605314, -0.9999998), (-0.00021897924, 0.0005605314, -0.9999998), (-0.00021897924, 0.0005605314, -0.9999998), (-0.00021897924, 0.0005605314, -0.9999998), (-0.00021897924, 0.0005605314, -0.9999998), (-0.00021897924, 0.0005605314, -0.9999998), (-0.00021897924, 0.0005605314, -0.9999998), (-0.00021897924, 0.0005605314, -0.9999998), (0.00021897924, -0.0005605314, 0.9999998), (-0.00021897924, 0.0005605314, -0.9999998), (0.00021897924, -0.0005605314, 0.9999998), (0.00021897924, -0.0005605314, 0.9999998), (0.00021897924, -0.0005605314, 0.9999998), (0.00021897924, -0.0005605314, 0.9999998), (0.00021897924, -0.0005605314, 0.9999998), (0.00021897924, -0.0005605314, 0.9999998), (0.00021897924, -0.0005605314, 0.9999998), (0.00021897924, -0.0005605314, 0.9999998), (-0.00021897924, 0.0005605314, -0.9999998), (-0.00021897924, 0.0005605314, -0.9999998), (0.00021897924, -0.0005605314, 0.9999998), (-0.00021897924, 0.0005605314, -0.9999998), (0.00021897924, -0.0005605314, 0.9999998), (0.00021897924, -0.0005605314, 0.9999998), (-0.00021897924, 0.0005605314, -0.9999998), (-0.00021897924, 0.0005605314, -0.9999998), (0.00021897924, -0.0005605314, 0.9999998), (-0.00021897924, 0.0005605314, -0.9999998), (0.00021897924, -0.0005605314, 0.9999998), (0.00021897924, -0.0005605314, 0.9999998), (0.0147357965, 0.9998913, 0.0005572437), (0.0147357965, 0.9998913, 0.0005572437), (0.0147357965, 0.9998913, 0.0005572437), (0.0147357965, 0.9998913, 0.0005572437), (0.0147357965, 0.9998913, 0.0005572437), (0.0147357965, 0.9998913, 0.0005572437), (0.0147357965, 0.9998913, 0.0005572437), (0.0147357965, 0.9998913, 0.0005572437), (-0.0147357965, -0.9998913, -0.0005572437), (0.0147357965, 0.9998913, 0.0005572437), (-0.0147357965, -0.9998913, -0.0005572437), (-0.0147357965, -0.9998913, -0.0005572437), (-0.0147357965, -0.9998913, -0.0005572437), (-0.0147357965, -0.9998913, -0.0005572437), (-0.0147357965, -0.9998913, -0.0005572437), (-0.0147357965, -0.9998913, -0.0005572437), (-0.0147357965, -0.9998913, -0.0005572437), (-0.0147357965, -0.9998913, -0.0005572437), (-0.0147357965, -0.9998913, -0.0005572437), (-0.0147357965, -0.9998913, -0.0005572437), (0.0147357965, 0.9998913, 0.0005572437), (-0.0147357965, -0.9998913, -0.0005572437), (0.0147357965, 0.9998913, 0.0005572437), (0.0147357965, 0.9998913, 0.0005572437), (0.0147357965, 0.9998913, 0.0005572437), (-0.0147357965, -0.9998913, -0.0005572437), (-0.0147357965, -0.9998913, -0.0005572437), (0.0147357965, 0.9998913, 0.0005572437), (-0.0147357965, -0.9998913, -0.0005572437), (0.0147357965, 0.9998913, 0.0005572437), (-0.0147357965, -0.9998913, -0.0005572437), (0.0147357965, 0.9998913, 0.0005572437), (0.0147357965, 0.9998913, 0.0005572437), (-0.0147357965, -0.9998913, -0.0005572437), (0.0147357965, 0.9998913, 0.0005572437), (-0.0147357965, -0.9998913, -0.0005572437), (0.00021897924, -0.0005605314, 0.9999998), (0.00021897924, -0.0005605314, 0.9999998), (-0.00021897924, 0.0005605314, -0.9999998), (0.00021897924, -0.0005605314, 0.9999998), (-0.00021897924, 0.0005605314, -0.9999998), (-0.00021897924, 0.0005605314, -0.9999998), (-0.00021897924, 0.0005605314, -0.9999998), (-0.00021897924, 0.0005605314, -0.9999998), (-0.00021897924, 0.0005605314, -0.9999998), (-0.00021897924, 0.0005605314, -0.9999998), (-0.00021897924, 0.0005605314, -0.9999998), (-0.00021897924, 0.0005605314, -0.9999998), (-0.00021897924, 0.0005605314, -0.9999998), (-0.00021897924, 0.0005605314, -0.9999998), (0.00021897924, -0.0005605314, 0.9999998), (-0.00021897924, 0.0005605314, -0.9999998), (0.00021897924, -0.0005605314, 0.9999998), (0.00021897924, -0.0005605314, 0.9999998), (0.00021897924, -0.0005605314, 0.9999998), (0.00021897924, -0.0005605314, 0.9999998), (0.00021897924, -0.0005605314, 0.9999998), (0.00021897924, -0.0005605314, 0.9999998), (0.00021897924, -0.0005605314, 0.9999998), (0.00021897924, -0.0005605314, 0.9999998), (-0.00021897924, 0.0005605314, -0.9999998), (-0.00021897924, 0.0005605314, -0.9999998), (0.00021897924, -0.0005605314, 0.9999998), (-0.00021897924, 0.0005605314, -0.9999998), (0.00021897924, -0.0005605314, 0.9999998), (0.00021897924, -0.0005605314, 0.9999998), (-0.00021897924, 0.0005605314, -0.9999998), (-0.00021897924, 0.0005605314, -0.9999998), (0.00021897924, -0.0005605314, 0.9999998), (-0.00021897924, 0.0005605314, -0.9999998), (0.00021897924, -0.0005605314, 0.9999998), (0.00021897924, -0.0005605314, 0.9999998), (-0.00021897924, 0.0005605314, -0.9999998), (0.00021897924, -0.0005605314, 0.9999998), (0.00021897924, -0.0005605314, 0.9999998), (-0.00021897924, 0.0005605314, -0.9999998), (0.00021897924, -0.0005605314, 0.9999998), (-0.00021897924, 0.0005605314, -0.9999998), (0.00021897924, -0.0005605314, 0.9999998), (0.00021897924, -0.0005605314, 0.9999998), (0.00021897924, -0.0005605314, 0.9999998), (0.00021897924, -0.0005605314, 0.9999998), (0.00021897924, -0.0005605314, 0.9999998), (0.00021897924, -0.0005605314, 0.9999998), (0.00021897924, -0.0005605314, 0.9999998), (-0.00021897924, 0.0005605314, -0.9999998), (-0.00021897924, 0.0005605314, -0.9999998), (0.00021897924, -0.0005605314, 0.9999998), (-0.00021897924, 0.0005605314, -0.9999998), (0.00021897924, -0.0005605314, 0.9999998), (-0.00021897924, 0.0005605314, -0.9999998), (-0.00021897924, 0.0005605314, -0.9999998), (-0.00021897924, 0.0005605314, -0.9999998), (-0.00021897924, 0.0005605314, -0.9999998), (-0.00021897924, 0.0005605314, -0.9999998), (-0.00021897924, 0.0005605314, -0.9999998), (0.00021897924, -0.0005605314, 0.9999998), (-0.00021897924, 0.0005605314, -0.9999998), (-0.00021897924, 0.0005605314, -0.9999998), (0.00021897924, -0.0005605314, 0.9999998), (-0.00021897924, 0.0005605314, -0.9999998), (0.00021897924, -0.0005605314, 0.9999998), (0.00021897924, -0.0005605314, 0.9999998), (-0.00021897924, 0.0005605314, -0.9999998), (-0.00021897924, 0.0005605314, -0.9999998), (0.00021897924, -0.0005605314, 0.9999998), (-0.00021897924, 0.0005605314, -0.9999998), (0.00021897924, -0.0005605314, 0.9999998), (-0.9998914, 0.014735672, 0.0002272153), (0.9998914, -0.014735672, -0.0002272153), (0.9998914, -0.014735672, -0.0002272153), (-0.9998914, 0.014735672, 0.0002272153), (0.9998914, -0.014735672, -0.0002272153), (-0.9998914, 0.014735672, 0.0002272153), (-0.9998914, 0.014735672, 0.0002272153), (0.9998914, -0.014735672, -0.0002272153), (0.9998914, -0.014735672, -0.0002272153), (-0.9998914, 0.014735672, 0.0002272153), (0.9998914, -0.014735672, -0.0002272153), (-0.9998914, 0.014735672, 0.0002272153), (-0.9998914, 0.014735672, 0.0002272153), (0.9998914, -0.014735672, -0.0002272153), (0.9998914, -0.014735672, -0.0002272153), (-0.9998914, 0.014735672, 0.0002272153), (0.9998914, -0.014735672, -0.0002272153), (-0.9998914, 0.014735672, 0.0002272153), (-0.9998914, 0.014735672, 0.0002272153), (0.9998914, -0.014735672, -0.0002272153), (0.9998914, -0.014735672, -0.0002272153), (-0.9998914, 0.014735672, 0.0002272153), (0.9998914, -0.014735672, -0.0002272153), (-0.9998914, 0.014735672, 0.0002272153), (-0.9998914, 0.014735672, 0.0002272153), (-0.9998914, 0.014735672, 0.0002272153), (-0.9998914, 0.014735672, 0.0002272153), (-0.9998914, 0.014735672, 0.0002272153), (-0.9998914, 0.014735672, 0.0002272153), (-0.9998914, 0.014735672, 0.0002272153), (0.9998914, -0.014735672, -0.0002272153), (0.9998914, -0.014735672, -0.0002272153), (0.9998914, -0.014735672, -0.0002272153), (0.9998914, -0.014735672, -0.0002272153), (0.9998914, -0.014735672, -0.0002272153), (0.9998914, -0.014735672, -0.0002272153)] (
        interpolation = "faceVarying"
    )
    point3f[] points = [(-0.030918207, 0.05479538, -0.13694787), (-0.030916454, 0.054790895, -0.12894785), (0.03307661, 0.053847812, -0.1289624), (0.033074856, 0.053852297, -0.13696241), (-0.03236056, -0.043198444, -0.12900247), (0.0316325, -0.044141527, -0.12901701), (-0.032362316, -0.043193962, -0.13700248), (0.03163075, -0.044137046, -0.13701703), (0.03322414, 0.059695818, 0.14104089), (0.041223273, 0.059577934, 0.14103907), (0.041161522, 0.059736002, -0.14096089), (0.03316239, 0.05985389, -0.14095907), (0.039540585, -0.050252035, -0.14102218), (0.03154145, -0.050134152, -0.14102036), (0.039602336, -0.050410107, 0.14097777), (0.031603202, -0.05029222, 0.14097959), (0.040605735, 0.020173036, -0.020982841), (0.040614933, 0.020149494, 0.021017013), (0.04037916, 0.004151225, 0.021008104), (0.04036996, 0.004174767, -0.020991765), (0.04032515, 0.0011065633, -0.019204084), (0.040034827, -0.017794797, -0.071004026), (0.04086736, 0.038833406, -0.07986109), (0.04092992, 0.042170644, -0.020970581), (0.04083137, 0.036344722, -0.07683174), (0.040030446, -0.017783586, -0.091004044), (0.04033168, 0.0025962954, -0.08709087), (0.04034927, 0.003732184, -0.08333838), (0.040787254, 0.033312928, -0.07434617), (0.04073671, 0.029854532, -0.0724999), (0.040377263, 0.0055782413, -0.07987962), (0.04068167, 0.02610244, -0.07136388), (0.040624257, 0.022200843, -0.07098175), (0.04041458, 0.00806353, -0.0768475), (0.040459786, 0.011092536, -0.07435855), (0.040566675, 0.018299675, -0.071368225), (0.040511142, 0.0145488605, -0.07250843), (0.032380026, 0.0042691105, 0.021009922), (0.032332033, 0.00024153107, 0.0710077), (0.03233904, 0.00022359406, 0.1030077), (0.032524575, 0.012922684, 0.095903896), (0.03250218, 0.011445836, 0.09313688), (0.032488108, 0.010537125, 0.09013488), (0.0326066, 0.02029092, -0.020981023), (0.032370828, 0.0042926525, -0.020989947), (0.032482896, 0.0102314735, 0.08701327), (0.03248674, 0.010540625, 0.083891995), (0.0326158, 0.020267379, 0.021018831), (0.0324995, 0.011452701, 0.08089101), (0.032939985, 0.042264987, 0.02103109), (0.03252068, 0.012932649, 0.07812565), (0.032625124, 0.022318728, -0.07097993), (0.03272331, 0.028210083, -0.02097661), (0.03293079, 0.04228853, -0.020968763), (0.032549474, 0.014923598, 0.075702175), (0.032682538, 0.026220325, -0.07136206), (0.032584764, 0.017349033, 0.07371371), (0.032737575, 0.02997242, -0.07249808), (0.032625202, 0.02011575, 0.0722367), (0.032788124, 0.03343081, -0.07434435), (0.032669235, 0.023117425, 0.07132789), (0.03283224, 0.036462605, -0.076829925), (0.032715164, 0.026238702, 0.07102218), (0.032868225, 0.038951293, -0.07985927), (0.032761227, 0.029359637, 0.07133137), (0.032894704, 0.040801227, -0.08331597), (0.032805655, 0.03236029, 0.07224353), (0.032910652, 0.04194132, -0.087067194), (0.03284674, 0.035125345, 0.07372362), (0.03291546, 0.04232776, -0.09096879), (0.032882906, 0.037548553, 0.07571478), (0.032912757, 0.03953678, 0.078140475), (0.03293515, 0.041013632, 0.080907494), (0.032949224, 0.041922342, 0.08390949), (0.03295444, 0.04222799, 0.0870311), (0.03288786, 0.037535872, 0.098342195), (0.032852568, 0.035110433, 0.10033065), (0.03278084, 0.033449456, -0.10760313), (0.032826044, 0.03647846, -0.105114184), (0.03286336, 0.038963746, -0.102082066), (0.03291665, 0.039526816, 0.09591872), (0.032937832, 0.041006766, 0.09315335), (0.03289135, 0.040809806, -0.098623306), (0.032908943, 0.041945696, -0.09487081), (0.03295059, 0.04191884, 0.09015237), (0.03272948, 0.029993134, -0.10945325), (0.03281213, 0.032343715, 0.10180766), (0.0327681, 0.029342044, 0.10271648), (0.032673948, 0.026242316, -0.11059346), (0.03272217, 0.026220765, 0.10302218), (0.032616366, 0.02234115, -0.11097994), (0.032558955, 0.018439552, -0.110597804), (0.032676104, 0.023099832, 0.102713004), (0.032631677, 0.020099178, 0.101800844), (0.032503918, 0.01468746, -0.109461784), (0.03245337, 0.011229064, -0.107615516), (0.03259059, 0.017334118, 0.10032075), (0.03255443, 0.014910914, 0.09832958), (0.032409254, 0.008197269, -0.10512994), (0.032373264, 0.0057085836, -0.102100596), (0.031867493, -0.03177293, 0.10298987), (0.03234679, 0.0038586496, -0.0986439), (0.031860486, -0.031754993, 0.07098986), (0.03203365, -0.01767168, -0.08033554), (0.032350138, 0.0038500694, -0.08333656), (0.032332547, 0.0027141809, -0.087089054), (0.03202606, -0.017652249, -0.11500225), (0.032326028, 0.0023321144, -0.09099108), (0.032330837, 0.002718555, -0.09489267), (0.03184494, -0.03171519, -0.000010072598), (0.032281034, -0.0018557267, -0.01740761), (0.031985827, -0.02112219, -0.06700413), (0.03196289, -0.022678627, -0.06700499), (0.031952377, -0.02265172, -0.11500504), (0.03203657, -0.017679153, -0.06700221), (0.03237813, 0.0056961267, -0.0798778), (0.032567546, 0.018417561, -0.07136641), (0.03251201, 0.014666745, -0.072506614), (0.032415446, 0.008181415, -0.07684568), (0.032460652, 0.011210421, -0.074356735), (0.039844073, -0.03183307, -0.000011890322), (0.040331166, 0.00012364569, 0.07100588), (0.03985962, -0.03187288, 0.070988044), (0.039866626, -0.031890817, 0.10298805), (0.040035702, -0.01779704, -0.067004025), (0.039962023, -0.022796512, -0.06700681), (0.03995151, -0.022769606, -0.11500686), (0.04077997, 0.03333157, -0.10760495), (0.040728614, 0.029875247, -0.10945507), (0.040673077, 0.02612443, -0.11059528), (0.04002519, -0.017770134, -0.11500407), (0.0406155, 0.022223264, -0.11098175), (0.04032516, 0.002214229, -0.0909929), (0.040558085, 0.018321665, -0.11059962), (0.04032997, 0.0026006696, -0.09489449), (0.04034592, 0.0037407642, -0.09864572), (0.040503047, 0.014569575, -0.1094636), (0.040452503, 0.011111178, -0.10761733), (0.040372398, 0.005590698, -0.102102414), (0.040408384, 0.0080793835, -0.10513176), (0.040501315, 0.011327951, 0.09313506), (0.040523708, 0.012804798, 0.09590208), (0.040338174, 0.00010570868, 0.10300588), (0.040519815, 0.012814763, 0.07812383), (0.040498633, 0.011334815, 0.080889195), (0.040485874, 0.010422739, 0.08389018), (0.04048724, 0.01041924, 0.09013306), (0.040482026, 0.010113588, 0.08701145), (0.040548604, 0.014805712, 0.07570036), (0.04093912, 0.0421471, 0.021029273), (0.040583897, 0.017231146, 0.073711894), (0.040624335, 0.019997865, 0.072234884), (0.040668365, 0.02299954, 0.07132607), (0.040893834, 0.04068334, -0.08331779), (0.040714297, 0.026120817, 0.071020365), (0.040909786, 0.041823436, -0.08706901), (0.04076036, 0.02924175, 0.07132955), (0.040914595, 0.04220988, -0.090970606), (0.04080479, 0.032242402, 0.07224171), (0.040845875, 0.035007462, 0.0737218), (0.04088204, 0.03743067, 0.075712964), (0.04091189, 0.0394189, 0.07813866), (0.040934283, 0.040895745, 0.080905676), (0.040948357, 0.041804455, 0.08390767), (0.040953573, 0.042110108, 0.087029286), (0.04055356, 0.014793029, 0.09832776), (0.040825177, 0.036360573, -0.105116), (0.040862493, 0.038845863, -0.102083884), (0.040589724, 0.017216234, 0.10031893), (0.04063081, 0.019981293, 0.101799026), (0.040890485, 0.040691923, -0.09862512), (0.040908076, 0.04182781, -0.09487263), (0.040675238, 0.022981947, 0.102711186), (0.040721305, 0.02610288, 0.10302036), (0.040767234, 0.029224157, 0.102714665), (0.040811263, 0.032225832, 0.10180584), (0.0408517, 0.034992546, 0.10032883), (0.040949725, 0.041800957, 0.09015055), (0.040886994, 0.037417985, 0.09834038), (0.040915783, 0.039408933, 0.095916905), (0.040936965, 0.040888883, 0.09315153), (-0.030858206, 0.054641794, 0.1370521), (0.03313486, 0.05369871, 0.13703756), (0.033133104, 0.053703196, 0.12903754), (-0.030859958, 0.05464628, 0.12905209), (0.031689, -0.044286147, 0.12898293), (-0.032304067, -0.043343063, 0.12899747), (0.03169075, -0.04429063, 0.13698295), (-0.032302313, -0.043347545, 0.13699749), (-0.0322304, -0.038343597, 0.12900025), (0.03176269, -0.03928668, 0.1289857), (0.03170619, -0.03914206, -0.12901421), (-0.032286894, -0.038198978, -0.12899967), (0.03167672, -0.041141856, -0.12901533), (-0.032316368, -0.040198773, -0.12900078), (0.031733215, -0.041286472, 0.12898459), (-0.03225987, -0.04034339, 0.12899913), (-0.030897403, 0.054742135, -0.04194789), (0.03309566, 0.05379905, -0.041962434), (0.033095002, 0.053800732, -0.04496243), (-0.03089806, 0.054743815, -0.04494789), (0.031724576, -0.03918914, -0.045014255), (-0.03226849, -0.03824606, -0.04499971), (0.03172523, -0.039190825, -0.042014256), (-0.03226783, -0.03824774, -0.041999713), (-0.03087901, 0.054695047, 0.042052116), (-0.030878352, 0.054693367, 0.045052115), (0.033114713, 0.053750284, 0.04503757), (0.033114053, 0.053751964, 0.042037573), (-0.03224878, -0.03829651, 0.04500029), (0.031744283, -0.03923959, 0.04498575), (-0.03224944, -0.038294826, 0.042000294), (0.031743627, -0.03923791, 0.04198575), (-0.03876804, 0.060756788, 0.14105725), (-0.030768905, 0.0606389, 0.14105543), (-0.030830657, 0.060796972, -0.14094453), (-0.03882979, 0.060914855, -0.14094271), (-0.032451592, -0.04919107, -0.14100581), (-0.040450726, -0.049073182, -0.141004), (-0.032389842, -0.049349137, 0.14099413), (-0.040388975, -0.049231254, 0.14099595)]
}

