#usda 1.0
(
    defaultPrim = "montessori_box_MontessoriDrawer"
    metersPerUnit = 1
    upAxis = "Z"
)

def Mesh "montessori_box_MontessoriDrawer"
{
    int[] faceVertexCounts = [3, 3, 3, 3, 3, 3, 3, 3, 3, 3, 3, 3, 3, 3, 3, 3, 3, 3, 3, 3, 3, 3, 3, 3, 3, 3, 3, 3, 3, 3, 3, 3, 3, 3, 3, 3, 3, 3, 3, 3, 3, 3, 3, 3, 3, 3, 3, 3, 3, 3, 3, 3, 3, 3, 3, 3, 3, 3, 3, 3]
    int[] faceVertexIndices = [0, 1, 2, 0, 2, 3, 1, 4, 5, 1, 5, 2, 4, 6, 7, 4, 7, 5, 6, 0, 3, 6, 3, 7, 1, 0, 6, 1, 6, 4, 5, 7, 3, 5, 3, 2, 8, 9, 10, 8, 10, 11, 11, 10, 12, 11, 12, 13, 13, 12, 14, 13, 14, 15, 15, 14, 9, 15, 9, 8, 11, 13, 15, 11, 15, 8, 12, 10, 9, 12, 9, 14, 16, 17, 18, 16, 18, 19, 17, 20, 21, 17, 21, 18, 20, 22, 23, 20, 23, 21, 22, 16, 19, 22, 19, 23, 17, 16, 22, 17, 22, 20, 21, 23, 19, 21, 19, 18, 24, 25, 26, 24, 26, 27, 25, 28, 29, 25, 29, 26, 28, 30, 31, 28, 31, 29, 30, 24, 27, 30, 27, 31, 25, 24, 30, 25, 30, 28, 29, 31, 27, 29, 27, 26, 32, 33, 34, 32, 34, 35, 33, 36, 37, 33, 37, 34, 36, 38, 39, 36, 39, 37, 38, 32, 35, 38, 35, 39, 33, 32, 38, 33, 38, 36, 37, 39, 35, 37, 35, 34]
    normal3f[] normals = [(0.9999994, 0, 0.0011060514), (0.9999994, 0, 0.0011060514), (-0.9999994, 0, -0.0011060514), (0.9999994, 0, 0.0011060514), (-0.9999994, 0, -0.0011060514), (-0.9999994, 0, -0.0011060514), (0.9999994, 0, 0.0011060514), (0.9999994, 0, 0.0011060514), (-0.9999994, 0, -0.0011060514), (0.9999994, 0, 0.0011060514), (-0.9999994, 0, -0.0011060514), (-0.9999994, 0, -0.0011060514), (0.9999994, 0, 0.0011060514), (0.9999994, 0, 0.0011060514), (-0.9999994, 0, -0.0011060514), (0.9999994, 0, 0.0011060514), (-0.9999994, 0, -0.0011060514), (-0.9999994, 0, -0.0011060514), (0.9999994, 0, 0.0011060514), (0.9999994, 0, 0.0011060514), (-0.9999994, 0, -0.0011060514), (0.9999994, 0, 0.0011060514), (-0.9999994, 0, -0.0011060514), (-0.9999994, 0, -0.0011060514), (0.9999994, 0, 0.0011060514), (0.9999994, 0, 0.0011060514), (0.9999994, 0, 0.0011060514), (0.9999994, 0, 0.0011060514), (0.9999994, 0, 0.0011060514), (0.9999994, 0, 0.0011060514), (-0.9999994, 0, -0.0011060514), (-0.9999994, 0, -0.0011060514), (-0.9999994, 0, -0.0011060514), (-0.9999994, 0, -0.0011060514), (-0.9999994, 0, -0.0011060514), (-0.9999994, 0, -0.0011060514), (-0.0011060514, 1.04423414e-7, 0.9999994), (-0.0011060514, 1.0779191e-7, 0.9999994), (-0.0011060514, 1.01054916e-7, 0.9999994), (-0.0011060514, 1.04423414e-7, 0.9999994), (-0.0011060514, 1.01054916e-7, 0.9999994), (-0.0011060514, 9.431792e-8, 0.9999994), (-0.0011060514, 9.431792e-8, 0.9999994), (-0.0011060514, 1.01054916e-7, 0.9999994), (0.0011060514, -1.0779191e-7, -0.9999994), (-0.0011060514, 9.431792e-8, 0.9999994), (0.0011060514, -1.0779191e-7, -0.9999994), (0.0011060514, -1.01054916e-7, -0.9999994), (0.0011060514, -1.01054916e-7, -0.9999994), (0.0011060514, -1.0779191e-7, -0.9999994), (0.0011060514, -1.01054916e-7, -0.9999994), (0.0011060514, -1.01054916e-7, -0.9999994), (0.0011060514, -1.01054916e-7, -0.9999994), (0.0011060514, -9.431792e-8, -0.9999994), (0.0011060514, -9.431792e-8, -0.9999994), (0.0011060514, -1.01054916e-7, -0.9999994), (-0.0011060514, 1.0779191e-7, 0.9999994), (0.0011060514, -9.431792e-8, -0.9999994), (-0.0011060514, 1.0779191e-7, 0.9999994), (-0.0011060514, 1.04423414e-7, 0.9999994), (-0.0011060514, 9.431792e-8, 0.9999994), (0.0011060514, -1.01054916e-7, -0.9999994), (0.0011060514, -9.431792e-8, -0.9999994), (-0.0011060514, 9.431792e-8, 0.9999994), (0.0011060514, -9.431792e-8, -0.9999994), (-0.0011060514, 1.04423414e-7, 0.9999994), (0.0011060514, -1.0779191e-7, -0.9999994), (-0.0011060514, 1.01054916e-7, 0.9999994), (-0.0011060514, 1.0779191e-7, 0.9999994), (0.0011060514, -1.0779191e-7, -0.9999994), (-0.0011060514, 1.0779191e-7, 0.9999994), (0.0011060514, -1.01054916e-7, -0.9999994), (-1.9160912e-10, -1, 1.7323698e-7), (1.9799609e-10, 1, -1.7901154e-7), (1.9160912e-10, 1, -1.7323698e-7), (-1.9160912e-10, -1, 1.7323698e-7), (1.9160912e-10, 1, -1.7323698e-7), (-1.9799608e-10, -1, 1.7901152e-7), (1.9799609e-10, 1, -1.7901154e-7), (1.9160913e-10, 1, -1.73237e-7), (1.948026e-10, 1, -1.7612425e-7), (1.9799609e-10, 1, -1.7901154e-7), (1.948026e-10, 1, -1.7612425e-7), (1.9160912e-10, 1, -1.7323698e-7), (1.9160913e-10, 1, -1.73237e-7), (-1.9799609e-10, -1, 1.7901154e-7), (-1.9160912e-10, -1, 1.7323698e-7), (1.9160913e-10, 1, -1.73237e-7), (-1.9160912e-10, -1, 1.7323698e-7), (1.948026e-10, 1, -1.7612425e-7), (-1.9799609e-10, -1, 1.7901154e-7), (-1.9160912e-10, -1, 1.7323698e-7), (-1.9799608e-10, -1, 1.7901152e-7), (-1.9799609e-10, -1, 1.7901154e-7), (-1.9799608e-10, -1, 1.7901152e-7), (-1.9160912e-10, -1, 1.7323698e-7), (1.9799609e-10, 1, -1.7901154e-7), (-1.9160912e-10, -1, 1.7323698e-7), (-1.9799609e-10, -1, 1.7901154e-7), (1.9799609e-10, 1, -1.7901154e-7), (-1.9799609e-10, -1, 1.7901154e-7), (1.9160913e-10, 1, -1.73237e-7), (1.948026e-10, 1, -1.7612425e-7), (-1.9160912e-10, -1, 1.7323698e-7), (-1.9799608e-10, -1, 1.7901152e-7), (1.948026e-10, 1, -1.7612425e-7), (-1.9799608e-10, -1, 1.7901152e-7), (1.9160912e-10, 1, -1.7323698e-7), (-1.9160912e-10, -1, 1.7323698e-7), (1.9799609e-10, 1, -1.7901154e-7), (1.9160912e-10, 1, -1.7323698e-7), (-1.9160912e-10, -1, 1.7323698e-7), (1.9160912e-10, 1, -1.7323698e-7), (-1.9799608e-10, -1, 1.7901152e-7), (1.9799609e-10, 1, -1.7901154e-7), (1.9160913e-10, 1, -1.73237e-7), (1.948026e-10, 1, -1.7612425e-7), (1.9799609e-10, 1, -1.7901154e-7), (1.948026e-10, 1, -1.7612425e-7), (1.9160912e-10, 1, -1.7323698e-7), (1.9160913e-10, 1, -1.73237e-7), (-1.9799609e-10, -1, 1.7901154e-7), (-1.9160912e-10, -1, 1.7323698e-7), (1.9160913e-10, 1, -1.73237e-7), (-1.9160912e-10, -1, 1.7323698e-7), (1.948026e-10, 1, -1.7612425e-7), (-1.9799609e-10, -1, 1.7901154e-7), (-1.9160912e-10, -1, 1.7323698e-7), (-1.9799608e-10, -1, 1.7901152e-7), (-1.9799609e-10, -1, 1.7901154e-7), (-1.9799608e-10, -1, 1.7901152e-7), (-1.9160912e-10, -1, 1.7323698e-7), (1.9799609e-10, 1, -1.7901154e-7), (-1.9160912e-10, -1, 1.7323698e-7), (-1.9799609e-10, -1, 1.7901154e-7), (1.9799609e-10, 1, -1.7901154e-7), (-1.9799609e-10, -1, 1.7901154e-7), (1.9160913e-10, 1, -1.73237e-7), (1.948026e-10, 1, -1.7612425e-7), (-1.9160912e-10, -1, 1.7323698e-7), (-1.9799608e-10, -1, 1.7901152e-7), (1.948026e-10, 1, -1.7612425e-7), (-1.9799608e-10, -1, 1.7901152e-7), (1.9160912e-10, 1, -1.7323698e-7), (0.0011060514, -1.8042005e-7, -0.9999994), (0.0011060514, -1.8929316e-7, -0.9999994), (0.0011060514, -1.8337775e-7, -0.9999994), (0.0011060514, -1.8042005e-7, -0.9999994), (0.0011060514, -1.8337775e-7, -0.9999994), (0.0011060514, -1.7746234e-7, -0.9999994), (0.0011060514, -1.8929316e-7, -0.9999994), (-0.0011060514, 1.8337775e-7, 0.9999994), (-0.0011060514, 1.7746234e-7, 0.9999994), (0.0011060514, -1.8929316e-7, -0.9999994), (-0.0011060514, 1.7746234e-7, 0.9999994), (0.0011060514, -1.8337775e-7, -0.9999994), (-0.0011060514, 1.8337775e-7, 0.9999994), (-0.0011060514, 1.8929316e-7, 0.9999994), (-0.0011060514, 1.8337775e-7, 0.9999994), (-0.0011060514, 1.8337775e-7, 0.9999994), (-0.0011060514, 1.8337775e-7, 0.9999994), (-0.0011060514, 1.7746234e-7, 0.9999994), (-0.0011060514, 1.8929316e-7, 0.9999994), (0.0011060514, -1.8042005e-7, -0.9999994), (0.0011060514, -1.7746234e-7, -0.9999994), (-0.0011060514, 1.8929316e-7, 0.9999994), (0.0011060514, -1.7746234e-7, -0.9999994), (-0.0011060514, 1.8337775e-7, 0.9999994), (0.0011060514, -1.8929316e-7, -0.9999994), (0.0011060514, -1.8042005e-7, -0.9999994), (-0.0011060514, 1.8929316e-7, 0.9999994), (0.0011060514, -1.8929316e-7, -0.9999994), (-0.0011060514, 1.8929316e-7, 0.9999994), (-0.0011060514, 1.8337775e-7, 0.9999994), (-0.0011060514, 1.7746234e-7, 0.9999994), (-0.0011060514, 1.8337775e-7, 0.9999994), (0.0011060514, -1.7746234e-7, -0.9999994), (-0.0011060514, 1.7746234e-7, 0.9999994), (0.0011060514, -1.7746234e-7, -0.9999994), (0.0011060514, -1.8337775e-7, -0.9999994)] (
        interpolation = "faceVarying"
    )
    point3f[] points = [(-0.02430132, -0.040999994, 0.045580402), (-0.02430132, 0.04100001, 0.045580387), (-0.026301345, 0.04100001, 0.045578178), (-0.026301345, -0.040999994, 0.045578193), (-0.024199564, 0.040999994, -0.046419557), (-0.026199589, 0.040999994, -0.046421766), (-0.024199564, -0.04100001, -0.046419542), (-0.026199589, -0.04100001, -0.04642175), (-0.024301324, -0.03600001, 0.04558041), (0.035698645, -0.03600001, 0.045646776), (0.035698645, 0.036000017, 0.045646768), (-0.024301324, 0.036000017, 0.045580402), (0.035704177, 0.036000017, 0.040646754), (-0.024295794, 0.036000017, 0.040580392), (0.035704177, -0.03600001, 0.04064676), (-0.024295794, -0.03600001, 0.0405804), (-0.024208415, 0.036, -0.038419552), (-0.024208415, 0.040999997, -0.038419556), (0.035791554, 0.040999997, -0.038353194), (0.035791554, 0.036, -0.03835319), (-0.024301324, 0.041000012, 0.045580383), (0.035698645, 0.041000012, 0.04564675), (-0.024301324, 0.036000013, 0.045580387), (0.035698645, 0.036000013, 0.045646753), (-0.024208415, -0.04100001, -0.03841954), (-0.024208415, -0.03600001, -0.038419545), (0.035791554, -0.03600001, -0.038353182), (0.035791554, -0.04100001, -0.03835318), (-0.024301324, -0.035999995, 0.045580395), (0.035698645, -0.035999995, 0.04564676), (-0.024301324, -0.040999994, 0.0455804), (0.035698645, -0.040999994, 0.045646764), (-0.024199568, -0.04100001, -0.046419553), (-0.024199568, 0.040999994, -0.04641957), (0.0358004, 0.040999994, -0.046353202), (0.0358004, -0.04100001, -0.046353187), (-0.024208415, 0.040999994, -0.03841956), (0.035791554, 0.040999994, -0.038353197), (-0.024208415, -0.04100001, -0.038419545), (0.035791554, -0.04100001, -0.038353182)]
}

