#usda 1.0
(
    defaultPrim = "montessori_object_2_MontessoriObject_002"
    metersPerUnit = 1
    upAxis = "Z"
)

def Mesh "montessori_object_2_MontessoriObject_002"
{
    int[] faceVertexCounts = [3, 3, 3, 3, 3, 3, 3, 3]
    int[] faceVertexIndices = [0, 1, 2, 0, 2, 3, 1, 4, 5, 1, 5, 2, 4, 0, 3, 4, 3, 5, 0, 4, 1, 2, 5, 3]
    normal3f[] normals = [(0, 0, 1), (0, 0, 1), (0, 0, 1), (0, 0, 1), (0, 0, 1), (0, 0, 1), (0, 0, 1), (0, 0, 1), (0, 0, 1), (0, 0, 1), (0, 0, 1), (0, 0, 1), (0, 0, 1), (0, 0, 1), (0, 0, 1), (0, 0, 1), (0, 0, 1), (0, 0, 1), (0, 0, 1), (0, 0, 1), (0, 0, 1), (0, 0, 1), (0, 0, 1), (0, 0, 1)] (
        interpolation = "faceVarying"
    )
    point3f[] points = [(0.02327999, 2.7842137e-20, -0.014999996), (-0.011639995, 0.020369941, -0.014999996), (-0.011639995, 0.020369941, 0.014999996), (0.02327999, 2.7842137e-20, 0.014999996), (-0.011639995, -0.020369941, -0.014999996), (-0.011639995, -0.020369941, 0.014999996)]
}

